<?xml version="1.0" standalone="no"?>
<!DOCTYPE svg PUBLIC "-//W3C//DTD SVG 20010904//EN"
 "http://www.w3.org/TR/2001/REC-SVG-20010904/DTD/svg10.dtd">
<svg version="1.0" xmlns="http://www.w3.org/2000/svg"
 width="700.000000pt" height="700.000000pt" viewBox="0 0 700.000000 700.000000"
 preserveAspectRatio="xMidYMid meet">
<metadata>
Created by potrace 1.14, written by Peter Selinger 2001-2017
</metadata>
<g transform="translate(0.000000,700.000000) scale(0.100000,-0.100000)"
fill="#000000" stroke="none">
<path d="M0 3500 l0 -3500 3500 0 3500 0 0 3500 0 3500 -3500 0 -3500 0 0
-3500z m3548 2169 c2 -13 -11 -17 -81 -21 -138 -9 -198 -53 -218 -163 -6 -35
-9 -261 -7 -618 3 -539 4 -564 23 -602 33 -66 63 -75 248 -75 140 0 162 2 199
21 83 43 195 187 294 383 27 53 52 96 57 96 11 0 9 -43 -13 -285 -11 -121 -20
-228 -20 -237 0 -17 -38 -18 -665 -18 -656 0 -665 0 -665 20 0 17 5 19 43 14
65 -9 148 18 185 60 52 59 54 87 50 706 l-3 565 -24 42 c-31 55 -86 82 -180
90 -61 5 -71 9 -71 25 0 18 16 18 422 16 379 -3 423 -5 426 -19z m292 -2813
c135 -45 221 -113 268 -214 23 -49 27 -70 27 -147 0 -78 -4 -97 -28 -147 -51
-104 -154 -169 -347 -217 l-107 -27 68 -18 c178 -46 274 -135 313 -292 9 -32
20 -115 26 -184 16 -175 43 -230 115 -230 53 0 121 57 140 118 4 13 14 22 26
22 16 0 19 -4 14 -22 -39 -131 -175 -205 -328 -179 -83 14 -130 37 -178 88
-75 78 -96 151 -108 369 -16 279 -60 318 -357 312 l-139 -3 -3 -255 c-1 -158
2 -275 9 -308 21 -103 97 -152 236 -152 56 0 63 -2 63 -20 0 -20 -7 -20 -425
-20 -418 0 -425 0 -425 20 0 17 7 20 48 20 108 0 198 52 219 128 10 35 10
1179 0 1214 -21 76 -111 128 -219 128 -42 0 -48 3 -48 21 0 20 1 20 543 17
492 -3 547 -5 597 -22z"/>
<path d="M3269 2821 l-24 -19 0 -339 0 -338 110 -3 c214 -6 329 23 401 100 73
77 107 209 85 337 -15 97 -44 152 -103 206 -70 63 -118 75 -299 75 -130 0
-150 -2 -170 -19z"/>
</g>
</svg>
