<svg xmlns="http://www.w3.org/2000/svg" width="943.006" height="919.395" viewBox="0 0 943.006 919.395">
  <g id="wood-texture-slider-new" transform="translate(-118.284 -155.811)">
    <path id="Path_67" data-name="Path 67" d="M432.7,741.61c4.836,7.539,8.971,16.295,12.945,24.643,4.7,10.188,9.674,20.5,15.888,29.15,8.471,12.011,25.23,16.3,40.158,20.121,2.684.836,5.491,1.387,7.891,2.1,9.516,2.641,19.273,5.9,29.519,9.2,28.337,9.186,57.812,18.869,84.991,19.077a126.958,126.958,0,0,0,47.211-8.813,133.507,133.507,0,0,0,62.63-50.69c7.788-12.008,17.381-20.008,26.565-27.847,11.849-10.062,23.165-19.679,30.5-36.461,9.9-22.267,11.676-48.428,13.568-73.692.991-13.121,1.893-25.263,3.728-36.828,1.534-9.325,3.432-18.321,5.126-27.237,5.366-26.623,10.519-51.984,7.141-81.079s-29.977-47.686-53.492-64.419c-7.5-5.317-14.637-10.3-20.956-15.612-35.284-29.339-74.968-41.628-106.081-33.222-17.679,4.8-35.855,10.734-57.63,18.314-16.586,5.786-27.87,5.251-42.166,4.245-3.625-.232-7.251-.463-11.284-.535a55.736,55.736,0,0,0-22.362,4.274c-8.582,3.359-16.728,8.434-24.545,13.144l-6.262,3.867c-5.321,3.261-11.007,6.194-16.692,9.127-12.312,6.47-24.749,13.225-35.86,22.762-34.65,30.069-47.381,83.626-50.592,99.5l-.461,1.832c-7.1,36.028-13.4,67.495.285,102.459,8.4,21.469,19.9,31.586,32.338,42.281C414.4,719.536,424,727.8,432.7,741.61Zm-57.92-174.452.461-1.831c3.086-15.592,15.773-68.66,49.89-98.285,10.907-9.457,23.424-16.007,35.532-22.4,5.481-2.853,11.086-5.991,16.691-9.128l6.263-3.866c7.817-4.711,15.962-9.786,24.34-13.065a51.5,51.5,0,0,1,21.544-3.953c4.034.071,7.659.3,11.285.534,14.7.847,26.069,1.586,42.983-4.564,21.775-7.58,39.951-13.516,57.63-18.315,30.42-8.37,69.331,3.75,104.046,32.84,6.319,5.308,13.455,10.3,20.956,15.612,24.164,17.186,49.182,34.746,52.648,62.863,3.5,28.811-1.731,53.968-7.177,80.386-1.774,8.712-3.592,17.912-5.126,27.237-1.96,11.849-2.862,23.992-3.852,37.113-1.768,24.979-3.829,51.016-13.4,72.918-7.209,16.5-18.4,25.831-30.046,35.812-9.388,7.92-18.9,16.123-27.017,28.5a132.765,132.765,0,0,1-61.564,49.8,121.621,121.621,0,0,1-46.4,8.493c-26.974-.287-56.165-9.846-84.5-19.032-10.326-3.5-20.207-6.474-29.8-9.32-2.6-.631-5.287-1.467-7.89-2.1-14.44-3.78-30.914-7.942-38.861-19.215-6.134-8.445-10.908-18.838-15.728-28.741-4.054-8.552-8.189-17.308-13.025-24.847-8.783-14.011-18.462-22.484-27.776-30.627-12.15-10.571-23.57-20.484-31.734-41.34-13.606-34.759-7.558-65.658-.373-101.481Z" fill="#121212"/>
    <path id="Path_68" data-name="Path 68" d="M442.49,734.713c4.472,7.21,8.366,15.353,12.18,23.291,4.455,9.575,9.194,19.274,15.044,27.595,7.947,11.273,23.932,15.39,38.087,19.045,2.6.632,5,1.343,7.4,2.054,9.028,2.6,18.216,5.6,27.893,8.653,26.791,8.848,54.56,17.785,80.353,18.063a117.406,117.406,0,0,0,44.6-8.262,125.606,125.606,0,0,0,59.024-47.863c7.335-11.36,16.4-18.915,25.046-26.31,11.112-9.537,21.691-18.63,28.855-34.639,9.2-21.049,11.126-45.619,12.885-69.416.9-12.143,1.76-23.8,3.551-34.873,1.49-8.835,3.139-17.262,4.789-25.689,5.233-25.157,10.049-48.971,6.823-76.475-3.146-27.3-28.243-45.064-50.381-60.685-7.137-4.988-13.7-9.726-19.659-14.7-33.257-27.774-70.827-39.477-100.144-31.3-16.578,4.6-33.813,9.935-54.486,17.32-15.564,5.385-26.36,4.895-39.883,4.058-3.341-.107-6.966-.339-10.795-.49a53.758,53.758,0,0,0-21.056,4c-8.173,3.2-15.786,7.829-23.194,12.38-1.883,1.209-3.971,2.5-5.934,3.5-5.2,2.977-10.393,5.955-15.67,8.727-11.495,6.151-23.4,12.461-33.773,21.473-32.722,28.372-44.7,79.04-47.821,93.938l-.257,1.752c-6.643,34.2-12.559,63.629.407,96.752,7.924,20.242,18.98,29.826,30.481,39.943,8.585,7.486,17.535,15.3,25.634,28.165ZM387.922,570.031l.257-1.752c3-14.613,14.931-64.793,46.916-92.64,10.17-8.932,22.074-15.243,33.444-21.108,5.277-2.773,10.554-5.546,15.67-8.728,1.883-1.209,4.051-2.293,5.934-3.5,7.408-4.55,15.021-9.181,22.786-12.22a54.5,54.5,0,0,1,20.363-3.963c3.829.152,7.454.383,10.591.57,13.727.757,24.6,1.452,40.576-4.093,20.548-7.1,37.7-12.637,54.281-17.24,28.7-7.935,65.5,3.6,98.109,30.92,5.955,4.978,12.807,9.842,19.943,14.829,22.787,16.075,46.3,32.807,49.537,59.129,3.066,27.1-1.546,50.83-6.655,75.7-1.649,8.427-3.5,16.934-4.993,25.77-1.791,11.076-2.648,22.729-3.47,35.077-1.84,23.592-3.564,48.082-12.637,68.847-6.916,15.44-17.29,24.453-28.278,33.705-8.855,7.475-17.835,15.235-25.579,26.755a125.014,125.014,0,0,1-58.162,47.054,117.866,117.866,0,0,1-43.7,8.146c-25.509-.153-53.073-9.17-79.58-17.894-9.757-3.254-19.149-6.18-27.973-8.857-2.4-.711-5-1.343-7.606-1.974-13.667-3.611-29.083-7.479-36.79-18.138-5.77-8.117-10.3-17.9-14.883-27.186-3.815-7.938-7.789-16.286-12.261-23.5-8.463-13.193-17.493-21.212-26.363-28.822-11.421-9.913-22.192-19.373-29.876-39-11.909-32.83-6.2-62.182.4-95.89Z" fill="#121212"/>
    <path id="Path_69" data-name="Path 69" d="M377.11,719.985c13.173,15.593,26.79,31.72,35.656,51.358,2.125,4.827,4.33,9.859,6.171,14.561,12.058,29,23.476,56.362,59.525,64.179,10.823,2.366,21.9,2.981,32.778,3.675a239.166,239.166,0,0,1,28.912,2.83c15.994,2.936,30.55,7.613,46.038,12.868,2.479.916,5.163,1.752,7.562,2.464,24.6,8.056,61.835,14.7,98.818.224a99.3,99.3,0,0,0,10.385-4.773c34.4-17.472,55.382-45.729,75.727-75.622,5.683-8.356,11.811-16.178,17.61-23.635,15.835-20.346,30.968-39.475,36.635-68.338,2.493-12.294,1.964-23.877,1.6-36.233-.233-7.218-.627-14.845-.123-22.588.573-11.779,2.861-23.992,5.1-35.717,1.694-8.916,3.388-17.832,4.389-26.712,1.258-10.632,3.244-20.606,5.311-30.375,5.482-25.725,10.547-50.108-3.919-78.636-12.217-23.985-32.666-36.495-54.127-49.787-7.465-4.623-15.215-9.371-22.511-14.767-6.488-4.535-12.647-9.433-18.441-14-23.747-18.528-44.091-34.38-78.031-35.006-16.624-.331-33.415,5.534-49.672,10.955-1.839.72-3.554,1.155-5.189,1.8-2.327.675-4.779,1.635-7.231,2.6-7.027,2.515-14.178,5.314-21.029,5.873-4.771.453-9.533-.276-14.58-1.13-4.478-.605-9.037-1.415-13.479-1.326-21.439.611-37.68,3.667-53.413,9.826-9.2,3.6-18.505,6.3-27.611,8.921-8.9,2.542-18.212,5.243-27.2,8.762-32.283,12.638-55.492,32.8-79.8,69.436-18.249,27.422-29.418,50.657-35.327,73.485-2.431,9.44-3.067,18.649-3.748,28.347-.1,2.161-.318,4.6-.54,7.05-.531,5.867-1.675,11.974-2.694,17.8-1.446,8.347-3.015,16.978-2.914,25.663.441,17.984,10.018,40.644,18.793,55.837,9.1,14.828,20.054,27.755,30.561,40.148Zm-46.787-96.047c-.225-8.4,1.425-16.827,2.87-25.174,1.02-5.823,2.164-11.929,2.615-18,.221-2.444.318-4.6.539-7.049.761-9.494,1.193-18.623,3.7-27.859,5.785-22.543,16.954-45.779,35.079-72.916,24.181-36.346,46.857-56.069,78.936-68.626,8.991-3.52,18.1-6.141,27-8.682,9.106-2.622,18.416-5.323,27.815-9,15.325-6,31.565-9.055,52.6-9.506a85.186,85.186,0,0,1,13.194,1.2c4.967.65,10.014,1.5,15.07,1.175,7.338-.514,14.49-3.314,21.721-5.909,2.452-.959,4.7-1.839,7.027-2.515,1.635-.639,3.554-1.155,5.188-1.8,15.974-5.545,32.64-11.126,48.775-10.839,33.248.661,53.511,16.309,76.689,34.588,5.795,4.57,11.954,9.468,18.442,14,7.5,5.316,15.25,10.064,22.715,14.687,21.177,13.168,41.342,25.553,53.318,48.925,14.226,27.914,9.205,51.808,3.768,77.045-2.067,9.769-4.258,19.823-5.436,30.659-1,8.88-2.7,17.8-4.184,26.632-2.164,11.929-4.452,24.143-5.15,36.206-.5,7.742-.11,15.37.124,22.588.484,12.072.808,23.735-1.56,35.744-5.623,28.374-20.552,47.423-36.263,67.484-5.8,7.458-11.927,15.28-17.814,23.715-20.221,29.609-41.286,57.661-75.069,74.894A95.6,95.6,0,0,1,691.85,870.3c-36.37,14.236-72.836,7.761-97.228-.375-2.684-.836-5.163-1.752-7.562-2.464-15.488-5.255-30.124-10.137-46.322-12.992a242.136,242.136,0,0,0-29.117-2.75c-10.8-.49-21.955-1.309-32.493-3.551-34.992-7.524-46.25-34.478-58.068-62.863-2.125-4.827-4.046-9.734-6.251-14.766-9.026-20.047-22.643-36.174-36.1-51.891-10.507-12.393-21.378-25.115-29.912-39.7-8.491-15.068-17.988-37.524-18.474-55.019Z" fill="#121212"/>
    <path id="Path_70" data-name="Path 70" d="M421.767,749.191c5.076,8.153,9.371,17.318,13.79,26.2,5.139,10.721,10.359,21.647,16.812,30.91,9,12.749,26.812,17.329,42.513,21.322,2.888.756,5.776,1.512,8.38,2.143,10.085,2.89,20.331,6.189,31.429,9.862,30.248,9.853,61.269,19.874,90.2,20.34A133.463,133.463,0,0,0,675,850.727a143.2,143.2,0,0,0,66.441-53.6c8.445-12.738,18.491-21.386,28.208-29.67,12.506-10.79,24.559-20.932,32.39-38.852,10.52-23.689,12.429-51.317,14.454-78.048.955-13.814,2.026-26.73,3.949-39.273,1.578-9.813,3.645-19.582,5.463-28.783,5.623-28.374,11.194-55.077,7.584-85.968-3.529-30.687-31.87-50.718-56.683-68.357-8.07-5.566-15.57-10.883-22.254-16.519-37.39-31.108-79.554-44.314-112.505-35.188-18.7,5.2-37.979,11.33-61.183,19.47-17.608,6.185-29.665,5.481-44.859,4.591-3.829-.152-7.739-.508-11.977-.5-7.659-.3-15.495,1.349-23.668,4.548-8.99,3.52-17.749,8.835-26.1,13.99-2.292,1.368-4.379,2.657-6.671,4.026-5.73,3.421-11.824,6.514-17.633,9.732-12.846,6.914-26.384,13.864-38.153,24.13-36.577,31.767-50.31,88.782-53.69,105.432l-.381,2.035c-7.61,38.348-14.164,71.567.4,108.78,8.884,22.7,21.113,33.471,34.276,44.824,10.007,8.108,20.13,17.114,29.358,31.658ZM360.093,563.947l.382-2.035c3.175-16.57,16.74-72.812,52.988-104.214,11.645-9.982,24.9-17.056,37.744-23.971,5.89-3.012,11.9-6.31,17.633-9.732,2.292-1.368,4.379-2.657,6.671-4.026,8.35-5.155,16.9-10.39,25.691-13.829,7.968-3.119,15.4-4.612,22.85-4.229,4.318.2,8.148.348,11.977.5,15.4.811,27.74,1.639,45.756-4.706,23-8.06,42.483-14.272,60.98-19.39,32.338-8.886,73.728,4.151,110.47,34.8,6.683,5.637,14.388,10.874,22.333,16.724,25.747,18.217,52.221,37.092,55.759,66.6,3.53,30.686-1.917,57.1-7.62,85.275-1.942,9.485-3.884,18.969-5.382,28.988-1.924,12.542-2.995,25.458-4.154,39.352-1.821,26.651-4.014,54.154-14.206,77.479-7.786,17.431-19.43,27.413-31.812,37.919-9.922,8.364-20.172,17.092-28.741,30.114a139.924,139.924,0,0,1-65.295,52.911,128.026,128.026,0,0,1-49.211,9.124c-28.645-.341-59.666-10.362-89.629-20.091-11.1-3.672-21.344-6.971-31.43-9.862-2.683-.835-5.571-1.591-8.459-2.347-15.417-3.869-32.744-8.4-41.42-20.335-6.374-9.059-11.593-19.985-16.732-30.706-4.215-8.961-8.59-18.331-13.87-26.4-9.308-14.748-19.635-23.674-29.474-32.556-12.878-11.229-25.028-21.8-33.752-44.086-14.042-36.475-7.532-69.205-.047-107.269Z" fill="#121212"/>
    <path id="Path_71" data-name="Path 71" d="M598.45,614.243a23.679,23.679,0,0,1,6.683,5.637,47.215,47.215,0,0,0,3.8,3.7c3.849,3.21,8.39,6.384,13.294,4.464l.409-.16c5.152-2.488,7.433-8.1,8.108-11.191,1.969-7.609,1-14.3-2.237-17.752-2.711-2.712-6.5-3.352-11.435-2.126a46.288,46.288,0,0,1-9.747.986,53.021,53.021,0,0,0-5.748.363l-.409.16a29.916,29.916,0,0,0-8.529,1.688,7.449,7.449,0,0,0-3.935,3.191c-2.033,5.04,5.4,8.97,8.685,10.749l1.057.293Zm-7.343-10.33c.373-.854,1.11-1.378,2.745-2.018a28.042,28.042,0,0,1,7.916-1.448l.409-.16a40.169,40.169,0,0,1,5.748-.364,64.817,64.817,0,0,0,10.235-.941c4.327-.986,7.339-.515,9.321,1.539,2.791,2.916,3.442,8.792,1.64,15.628-.834,2.684-2.662,7.644-7,9.813-4.007,1.8-7.9-.917-11.463-4a43.632,43.632,0,0,1-3.724-3.494,28.6,28.6,0,0,0-7.333-6.09l-.648-.453c-3-1.654-9.216-4.881-7.849-8.01Z" fill="#121212"/>
    <path id="Path_72" data-name="Path 72" d="M583.135,624.482c5.732,2,10.585,7.175,15.358,12.145,8.008,8.419,16.381,17.167,29.662,11.968a16.662,16.662,0,0,0,2.985-1.4c15.83-8.319,22.868-29.466,15.905-47.255a49.8,49.8,0,0,1-2.287-10.658c-.811-6.285-1.7-12.774-6.031-17.211s-10.085-2.89-14.376-1.21c-1.839.72-3.8,1.724-5.641,2.444-3.189,1.484-6.174,2.888-8.377,3.279-2.408.471-4.816.942-7.019,1.333-4.611.861-9.1,1.439-13.593,3.2a31.187,31.187,0,0,0-8.1,4.586c-6.884,5.289-13.7,11.964-12.387,22.534,1.23,10.365,3.985,12.587,13.9,16.251Zm-11.823-16.358c-1.238-9.183,4.837-15.334,11.6-20.338a29.324,29.324,0,0,1,7.693-4.426c4.29-1.679,8.493-2.381,13.1-3.243,2.407-.471,4.611-.862,7.223-1.412,2.407-.471,5.8-2.035,8.786-3.44a57.557,57.557,0,0,1,5.641-2.444c5.721-2.239,9.346-2.008,12.057.7,3.884,3.9,4.615,9.983,5.47,15.779.543,3.8.962,7.876,2.323,11.352,6.563,16.766.022,36.776-14.867,44.49a14.438,14.438,0,0,1-2.78,1.324c-11.851,4.639-19.415-3.246-27.343-11.461-4.853-5.174-9.991-10.473-16.291-12.723-9.268-3.21-11.294-4.774-12.613-14.162Z" fill="#121212"/>
    <path id="Path_73" data-name="Path 73" d="M488.215,643.246c4.162,10.632,9.247,17.6,16.678,26.955l2.382,3.075a196.494,196.494,0,0,0,16.568,19.452c3,2.836,5.253,6.2,7.636,9.273,3.511,4.756,7.1,9.717,12.781,13.389,23.693,14.777,45.454,20.406,68.456,17.768a98.16,98.16,0,0,0,22.9-5.9c10.83-4.239,22.244-10.593,35.187-19.668,1.27-.969,2.62-1.733,3.89-2.7,11.139-7.662,22.687-15.483,28.609-28.648,2.193-4.631,2.715-9.315,3.442-14.08.3-2.24.6-4.48.984-6.516.8-3.378,1.8-6.836,2.8-10.293s2.085-6.712,2.8-10.294a34.617,34.617,0,0,0,.468-8.436,32.148,32.148,0,0,1,.379-7.458c.47-3.014,2.042-6.223,3.613-9.431a41.526,41.526,0,0,0,2.486-5.689c2.867-7.725,3.006-15.8,3.226-23.664.141-2.649.2-5.5.343-8.151,1.4-24.126-7.23-43.15-25.075-55.028a114.047,114.047,0,0,0-11.286-5.958c-4.061-1.947-8.042-3.69-11.081-6.037-1.662-1.236-3.12-2.551-4.782-3.787-5.51-4.445-10.167-8.517-19.781-9-9.9-.606-18.791.753-29.861,4.379-11.273,3.7-17.35,4.434-28.43,3.819-10.387-.65-19.849.46-31.07,2.495a60.443,60.443,0,0,0-10.9,2.852c-5.721,2.239-9.78,5.715-14.869,10.772-4.432,4.329-10.118,7.262-15.679,9.91a105.547,105.547,0,0,0-10.269,5.671c-8.27,5.359-16.913,11.572-23.786,21.1-9.8,13.5-8.448,30.188-7.4,43.691a95.542,95.542,0,0,1-.173,12.8l-.424,7.947c-.006,6.6,3.088,12.7,5.9,18.677a42.876,42.876,0,0,1,3.334,6.712Zm-6.744-25.656c-.063-2.569.158-5.013.3-7.662a102.863,102.863,0,0,0,.218-13.29c-1.348-16.685-1.495-30.3,6.986-42.348,6.669-9.449,14.859-15.013,23.254-20.657,3.233-1.973,6.547-3.741,10.064-5.59,5.686-2.933,11.655-5.741,16.212-10.354,5.089-5.058,8.82-8.169,14.132-10.248a54.581,54.581,0,0,1,10.492-2.693c11.017-1.954,20.2-3.189,30.377-2.459,11.364.739,17.646-.069,29.328-3.934,10.661-3.466,19.35-4.745,28.963-4.264,8.717.6,13.134,4.055,18.36,8.376,1.457,1.315,3.119,2.551,4.781,3.787,3.324,2.472,7.3,4.214,11.446,6.366,3.777,1.823,7.554,3.646,10.922,5.628,17.2,11.425,25.581,29.836,24.07,53.064-.141,2.649-.2,5.5-.264,8.356-.095,7.583-.234,15.654-2.977,23.094a40.264,40.264,0,0,1-2.566,5.485,41.357,41.357,0,0,0-3.861,10,43.114,43.114,0,0,0-.424,7.947,36.463,36.463,0,0,1-.423,7.947q-1.22,5.105-2.884,10.089c-1,3.458-2.006,6.916-2.8,10.294a39.958,39.958,0,0,0-.9,6.72c-.523,4.685-1.125,9.165-3.194,13.512-5.877,12.675-17.016,20.337-28.031,27.714-1.27.969-2.621,1.733-3.891,2.7-12.818,8.79-24.028,15.065-34.653,19.224a94.277,94.277,0,0,1-22.211,5.864c-22.513,2.682-43.786-2.9-67.114-17.35-5.314-3.343-8.541-7.975-12.052-12.731a61.615,61.615,0,0,0-7.8-9.682,190.33,190.33,0,0,1-16.408-19.043l-2.382-3.076c-7.147-9.228-12.152-15.993-16.234-26.421-.96-2.453-2.045-4.622-3.29-7.2-2.774-5.28-5.583-11.254-5.541-17.166Z" fill="#121212"/>
    <path id="Path_74" data-name="Path 74" d="M473.068,647.289c4.642,11.859,10.331,19.771,18.651,30.19l2.747,3.405c6.017,7.548,11.466,14.847,18.63,21.71a68.528,68.528,0,0,1,8.6,10.544c3.752,5.37,7.867,11.068,14.319,14.909,26.572,16.715,50.937,22.976,77.04,19.832a111.031,111.031,0,0,0,25.639-6.735c12.26-4.8,25.025-11.918,39.442-22.042l4.423-3.146c12.41-8.63,25.432-17.5,32.179-32.167,2.442-5.2,3.008-10.374,3.7-15.832.221-2.444.646-4.969,1.072-7.493a105.5,105.5,0,0,1,3.1-11.352c1.127-3.742,2.378-7.769,3.221-11.636a43.108,43.108,0,0,0,.556-9.414,48.686,48.686,0,0,1,.468-8.436c.514-3.5,2.414-7.075,4.11-10.569,1.075-2.071,2.069-4.346,2.939-6.337,3.16-8.783,3.388-17.832,3.7-26.677-.019-3.058.166-6.2.352-9.334,1.66-27.059-8.129-48.457-28-61.9a108.3,108.3,0,0,0-12.5-6.66c-4.63-2.2-9.18-4.187-12.584-6.864a40.033,40.033,0,0,1-5.226-4.32c-6.239-5.1-11.465-9.424-22.056-9.995-11.079-.614-21.155.736-33.45,4.842-12.7,4.265-19.678,5.109-32.02,4.281-11.648-.864-22.416.522-34.943,2.832a61.734,61.734,0,0,0-12.411,3.207c-6.334,2.48-10.927,6.4-16.753,11.981-4.965,4.773-11.468,8.026-17.766,11.2a122.44,122.44,0,0,0-11.415,6.355c-9.416,6.043-19,12.861-26.78,23.687-11.029,15.164-9.495,34.134-8.3,49.229a121.784,121.784,0,0,1-.226,14.472c-.185,3.138-.246,5.991-.307,8.844.029,7.3,3.443,14.215,6.493,20.8,1.156,3.556,2.4,6.134,3.362,8.588Zm-7.945-28.723c.061-2.853.123-5.707.308-8.845a113.637,113.637,0,0,0,.27-14.96c-1.455-18.766-1.833-34.18,7.962-47.682,7.655-10.542,16.707-16.915,26.247-23.243a126.54,126.54,0,0,1,11.21-6.275c6.5-3.253,13.006-6.505,18.3-11.643,5.747-5.786,10.09-9.137,16.016-11.457a59.769,59.769,0,0,1,12-3.047c12.323-2.23,22.887-3.536,34.251-2.8,12.83.873,19.8.029,32.917-4.4,12.091-4.026,21.677-5.421,32.553-4.726,9.9.606,14.759,4.6,20.714,9.576,1.742,1.44,3.4,2.676,5.43,4.241,3.688,2.8,8.238,4.792,12.868,6.989a67.286,67.286,0,0,1,12.219,6.535c19.427,12.909,28.693,33.569,27.2,59.855-.185,3.138-.371,6.276-.352,9.334-.183,8.56-.411,17.61-3.447,26.108l-2.734,6.257a51.455,51.455,0,0,0-4.359,11.138,66.817,66.817,0,0,0-.512,8.925,45.838,45.838,0,0,1-.512,8.925c-.843,3.867-1.97,7.609-3.1,11.352s-2.378,7.769-3.221,11.636c-.426,2.524-.851,5.049-1.073,7.493-.771,5.254-1.337,10.427-3.53,15.058-6.5,14.1-19.317,22.889-31.6,31.234l-4.424,3.147c-14.212,10.043-26.977,17.162-39.032,21.881a104.212,104.212,0,0,1-25.027,6.5c-25.41,3.108-49.49-3.028-75.493-19.494-5.963-3.8-9.635-8.962-13.67-14.456a76.218,76.218,0,0,0-8.685-10.748c-7.164-6.864-12.533-13.958-18.55-21.506l-2.747-3.405c-8.116-10.5-13.929-18.127-18.411-29.577-1.041-2.658-2.286-5.236-3.61-8.018-3.255-6.508-6.3-13.095-6.378-19.905Z" fill="#121212"/>
    <path id="Path_75" data-name="Path 75" d="M493.444,704.157c3.271,4.143,5.156,8.356,7.2,12.979,1.725,3.8,3.246,7.69,5.788,11.175,3.832,5.574,10.568,9.539,16.655,13.051,1.218.7,2.435,1.405,3.368,1.983,17.854,10.7,32.995,13.258,52.25,16.095l2.239.3c33.418,5.311,57.8,3.784,79.047-4.534a112.554,112.554,0,0,0,32.992-20.46c29.16-26.034,45.781-59.42,47.394-96.836,1-19.725,2.661-35.939,5.5-50.962.47-3.013,1.224-5.9,1.9-9,2.954-14.125,5.952-28.739,2.588-42.749-7.074-30.713-33.956-44.006-59.984-56.925-4.426-2.276-9.056-4.473-13.481-6.749a40.126,40.126,0,0,1-3.937-2.231c-5.154-2.935-9.66-5.415-16.137-5.709a39.945,39.945,0,0,0-12.687,1.9,38.463,38.463,0,0,1-20.666.78,56.964,56.964,0,0,0-11.524-1.148c-5.464.488-10.857,2.363-16.045,4.158a92.353,92.353,0,0,1-10.741,3.261c-6.938,1.538-14.037,2.666-20.931,3.714-10.688,1.59-21.785,3.34-32.037,6.646-10.865,3.545-20.574,10.647-30.078,17.668-4.22,3.067-8.11,5.769-12,8.471-21.452,13.82-34.763,34.593-40.555,63.741-.763,4.071-2.138,8.383-3.31,12.614-2.378,7.769-4.676,15.743-4.327,23.859.556,13.458,6.86,26.553,13.128,38.954,10.811,21,23.247,37.116,38.394,55.946Zm-49-94.473c-.393-7.628,1.985-15.4,4.364-23.166,1.171-4.231,2.547-8.542,3.434-12.9,5.667-28.863,18.2-48.623,39.445-62.364,3.97-2.5,7.985-5.483,12.2-8.55,8.643-6.213,17.41-12.71,26.809-16.389l2.452-.96c9.968-3.43,21.145-4.976,31.548-6.69,6.9-1.048,13.993-2.176,20.932-3.713a99.775,99.775,0,0,0,10.945-3.342c5.188-1.8,10.376-3.59,15.556-4.2a51.509,51.509,0,0,1,10.956.9,47.966,47.966,0,0,0,9.853,1.1,52.151,52.151,0,0,0,11.71-1.99c4.122-.906,8.165-2.017,11.994-1.866,5.784.33,10.21,2.606,15.08,5.416,1.217.7,2.719,1.529,3.937,2.231,4.425,2.277,9.055,4.473,13.48,6.749,25.665,12.59,52.058,25.838,58.856,55.245,3.2,13.6.125,28.011-2.7,41.851-.674,3.094-1.144,6.107-1.9,9a363.822,363.822,0,0,0-5.42,51.167c-1.648,36.722-17.736,69.664-46.567,95.334a108.956,108.956,0,0,1-32.379,20.22c-21.045,8.238-45.017,9.6-77.946,4.338l-2.239-.3c-19.824-3.086-33.907-5.355-51.476-15.926-1.218-.7-2.151-1.28-3.368-1.983-5.8-3.387-12.46-7.148-15.927-12.394a78.064,78.064,0,0,1-5.628-10.765c-1.965-4.418-4.09-9.246-7.441-13.593C479.86,683.3,467.505,667.387,456.933,647c-5.868-11.379-12.092-24.27-12.488-37.319Z" fill="#121212"/>
    <path id="Path_76" data-name="Path 76" d="M571.292,650.811c6.38,2.454,9.127,5.859,13.447,11.478,5.733,7.423,11.359,12.766,20.929,13.736,8.387.961,15.21-1.474,22.93-4.024a22.612,22.612,0,0,1,3.554-1.156l2.86-1.119c18.8-7.359,32.236-22.994,35.419-40.745,1.153-7.29.422-13.37-.389-19.655a55.11,55.11,0,0,1-.65-5.876c-.5-4.285.023-8.969.546-13.654q.717-6.294.822-12.347c-.457-10.2-4.592-18.953-11.888-24.35-7.741-5.93-18.528-7.6-30.122-4.714a70.894,70.894,0,0,0-8.946,3.03l-3.269,1.28-3.269,1.279a51,51,0,0,1-10.741,3.262c-2.816.63-5.508.977-8.2,1.323-5.793.853-11.87,1.581-17.92,4.185-13.654,6.052-25.094,15.954-30.715,26.878-4.626,8.649-3.263,17.548-2.265,26.117.508,3.1.731,6.081,1.034,9.263.438,7.138,5.211,12.108,10.312,16.713,4.818,4.481,10.221,6.846,16.521,9.1ZM546.538,624.9a78.823,78.823,0,0,0-1.034-9.263c-1.078-8.774-2.12-16.855,2.053-24.855,5.371-10.355,16.687-19.973,29.728-25.785l1.635-.64c5.313-2.079,10.288-2.612,15.876-3.385,2.692-.346,5.589-.772,8.405-1.4a72.022,72.022,0,0,0,10.945-3.342l3.269-1.279,3.269-1.28a69.535,69.535,0,0,1,8.742-2.95c10.981-2.648,20.995-1.145,28.291,4.252,6.648,4.943,10.542,13.086,10.963,22.589a99.252,99.252,0,0,1-.7,12.063,75.007,75.007,0,0,0-.59,14.143,58.981,58.981,0,0,0,.73,6.08c.891,6.49,1.382,11.957.353,18.962-3.1,17.956-17.518,33.5-36.84,40.122-1.226.48-2.328.676-3.554,1.156-7.435,2.674-13.93,4.745-22.033,3.908-8.876-1.005-14.058-5.815-19.427-12.909-4.4-5.823-7.431-9.353-14.46-12.26-6.1-2.33-11.419-4.491-15.952-8.847-5.021-4.4-9.35-8.837-9.672-15.077Z" fill="#121212"/>
    <path id="Path_77" data-name="Path 77" d="M503.487,638.918c3.6,9.2,8.162,15.433,14.624,23.514l2.018,2.748c4.684,5.947,9.005,11.566,14.631,16.909a42.771,42.771,0,0,1,6.462,8.081c3.067,4.223,6.213,8.65,11.163,11.664,20.609,12.919,39.767,17.917,60,15.421a86.635,86.635,0,0,0,19.883-5.189c9.4-3.679,19.463-9.27,30.727-17.216,1.146-.684,2.211-1.573,3.357-2.257,9.665-6.613,19.862-13.67,25.038-25.128,1.945-4.062,2.423-8.258,2.9-12.454.177-1.955.434-3.706.816-5.742a59.176,59.176,0,0,1,2.386-8.951c.959-2.969,1.917-5.938,2.592-9.032a44.393,44.393,0,0,0,.459-7.253,37.1,37.1,0,0,1,.291-6.481c.346-2.729,1.873-5.449,3.2-8.089.745-1.706,1.571-3.209,2.317-4.915,2.494-6.872,2.545-13.965,2.676-20.855.017-2.364.034-4.729.255-7.173,1.414-21.068-6.331-37.843-21.945-48.237a65.922,65.922,0,0,0-9.784-5.13,56.729,56.729,0,0,1-9.58-5.21l-4.133-3.334c-4.861-3.992-8.994-7.326-17.222-7.878-8.716-.6-16.508.567-26.067,3.837-9.763,3.35-15.147,4.043-24.841,3.358-9.205-.641-17.485.478-27.2,2.157a44.874,44.874,0,0,0-9.595,2.577c-4.9,1.919-8.43,4.95-13.066,9.359-3.7,3.8-8.847,6.293-13.591,8.621a79.4,79.4,0,0,0-8.919,4.906c-7.328,4.755-14.9,10.079-20.793,18.514-8.561,11.84-7.525,26.526-6.428,38.357a72.457,72.457,0,0,1-.12,11.13q-.318,3.476-.336,6.969c-.122,5.707,2.652,10.988,5.222,16.348.88,2.25,1.885,4.214,2.605,6.054Zm-5.668-22.3c.1-2.16.114-4.524.211-6.685a68.729,68.729,0,0,0,.165-11.618c-1.16-14.4-1.36-26.348,6.091-36.81,5.763-8.151,13.012-13.111,20.34-17.866,2.825-1.813,5.81-3.217,8.715-4.826,4.948-2.408,10.224-5.181,14.124-9.065,4.432-4.329,7.629-7,12.329-8.835a59.216,59.216,0,0,1,9.186-2.417c9.506-1.6,17.787-2.718,26.5-2.122,9.9.606,15.486-.167,25.534-3.393a63.323,63.323,0,0,1,25.17-3.722c7.739.508,11.3,3.593,16.084,7.38l4.133,3.334a54.72,54.72,0,0,0,10.148,5.46,80.782,80.782,0,0,1,9.5,5.005c18.859,12.661,21.735,32.049,20.941,46.272-.222,2.445-.239,4.809-.256,7.174-.21,6.685-.341,13.574-2.711,20.161-.542,1.626-1.367,3.129-2.113,4.835a61.569,61.569,0,0,0-3.444,8.658,33.173,33.173,0,0,0-.336,6.969,55.891,55.891,0,0,1-.335,6.97,59.2,59.2,0,0,1-2.387,8.951,69.845,69.845,0,0,0-2.511,9.236c-.381,2.035-.558,3.991-1.019,5.822a39.526,39.526,0,0,1-2.733,11.681c-5.132,10.969-15,17.661-24.461,24.194-1.145.684-2.211,1.573-3.357,2.257-11.139,7.662-21,13.172-30.4,16.851a81.561,81.561,0,0,1-19.474,5.03c-19.617,2.255-38.206-2.494-58.45-15.083-4.666-2.89-7.448-6.988-10.515-11.211a69.878,69.878,0,0,0-6.827-8.41c-5.341-5.219-9.661-10.837-14.346-16.785l-2.018-2.747c-6.258-8.161-10.658-13.984-14.179-22.98-.8-2.045-1.885-4.214-2.89-6.179-1.8-5.192-4.286-10.348-4.413-15.486Z" fill="#121212"/>
    <path id="Path_78" data-name="Path 78" d="M560.864,684.367c15.439,17.772,40.577,24.2,64.35,16.311,2.328-.676,4.576-1.555,6.823-2.435,45.974-18,53.044-49.295,55.359-59.633a13.182,13.182,0,0,1,.337-1.547c1.216-4.72,1.294-9.938,1.248-14.872.017-2.364.114-4.525.211-6.685.371-6.275,4.121-29.2,5.14-35.023,2.661-13.067-1.829-23.335-7.493-34.794-7.273-14.366-18.614-24.075-30.662-25.961-12.333-2.01-20.578-.2-30.874,3.6s-20.789,6.487-33.36,9.286c-4.531,1.066-9.133.746-13.656.63-5.7-.126-11.693-.375-17.414,1.864a21.226,21.226,0,0,0-3.393,1.565,191.6,191.6,0,0,0-20.475,13.909c-1.8,1.413-3.811,2.907-5.694,4.115a82.859,82.859,0,0,0-11.352,8.924c-4.1,3.964-7.265,7.324-8.942,13.875-.967,4.152-.752,8.312-.7,12.063.152,1.592.019,3.058.171,4.649-.1,2.161.09,4.445.073,6.81a77.22,77.22,0,0,1-.076,10.64c-.495,6.561-.28,10.721,2.317,17.957,4.393,12.428,13.663,21.061,23.831,29.578,8.87,7.61,17.278,17.052,24.229,25.177Zm-45.857-55.146c-2.437-6.827-2.572-10.783-2.2-17.059a96.153,96.153,0,0,0,0-10.845c-.188-2.284-.091-4.444-.2-6.525.052-1.671-.1-3.262.034-4.729a45.823,45.823,0,0,1,.653-11.574c1.428-5.982,4.262-8.978,8.161-12.862a93.767,93.767,0,0,1,11.023-8.559c2.007-1.493,3.891-2.7,5.9-4.2a189.259,189.259,0,0,1,20.271-13.83,16.617,16.617,0,0,1,2.984-1.4c5.313-2.08,10.813-1.875,16.517-1.749,4.727.036,9.534.276,14.269-.87a300.571,300.571,0,0,0,33.848-9.241c10.3-3.795,17.928-5.368,29.773-3.4,11.355,1.922,22.251,11.1,29.08,24.929,5.424,10.846,9.834,20.909,7.342,33.2-1.1,5.618-4.9,29.032-5.265,35.308-.1,2.16-.194,4.321-.211,6.685a59.264,59.264,0,0,1-1.2,14.383c-.044.489-.292,1.058-.461,1.831-2.191,10.054-9.173,40.375-54.124,57.971-2.248.88-4.5,1.76-6.823,2.435-22.956,7.571-47.241,1.515-61.952-15.6-7.235-8.25-15.439-17.772-24.513-25.3-9.555-8.757-18.745-17.185-22.9-29Z" fill="#121212"/>
    <path id="Path_79" data-name="Path 79" d="M463.776,727.088c4.16,5.21,6.606,10.855,9.051,16.5a101.157,101.157,0,0,0,7.193,14.161c4.6,6.926,13.118,11.843,20.707,16.181a48.293,48.293,0,0,1,4.3,2.561c22.235,13.461,41.365,16.583,65.462,20.355l2.728.347c41.682,6.556,72.379,4.915,99.145-5.563a132.639,132.639,0,0,0,41.262-25.819c36.745-32.54,57.3-74.54,59.264-121.289a485.546,485.546,0,0,1,6.774-63.959c.639-3.787,1.561-7.449,2.2-11.236,3.672-17.707,7.388-35.9,3.357-53.425-8.65-38.35-42.516-55.039-75.245-71.23-5.563-2.774-11.41-5.673-16.769-8.527-1.786-.951-3.368-1.982-5.074-2.729-6.372-3.637-12.095-6.82-19.958-7.043-5.3-.285-10.644,1.1-15.788,2.407a79.581,79.581,0,0,1-14.117,2.461,53.566,53.566,0,0,1-11.809-1.272c-4.558-.81-9.4-1.744-14.376-1.211-6.85.559-13.673,2.994-20.087,5.269-4.371,1.476-8.866,3.235-13.477,4.1-8.653,1.972-17.547,3.331-26.236,4.611-13.38,1.936-27.373,4.112-40.077,8.378-13.521,4.585-25.85,13.42-37.566,22.015-5.161,3.671-10.118,7.261-15.154,10.648-26.978,17.162-43.628,43.251-50.776,79.768a114.549,114.549,0,0,1-4.393,15.867c-3.044,9.68-5.928,19.769-5.551,29.761.734,16.925,8.6,33.416,16.481,48.724C428.923,683.2,444.63,703.458,463.776,727.088ZM401.584,608.541c-.5-9.707,2.463-19.592,5.383-28.988a139.947,139.947,0,0,0,4.312-16.071c7.229-36.313,22.893-61.308,49.666-78.391,5.117-3.181,10.073-6.772,15.154-10.647,10.855-7.786,21.834-15.857,33.889-20.576l3.065-1.2c12.7-4.266,26.492-6.362,39.873-8.3,8.689-1.279,17.786-2.718,26.235-4.61,4.531-1.067,9.311-2.7,13.682-4.177,6.414-2.275,13.032-4.63,19.6-5.314,4.771-.452,9.329.357,13.887,1.166a52.119,52.119,0,0,0,12.3,1.317c4.931-.043,9.87-1.27,14.606-2.416,5.144-1.306,10.163-2.328,15.174-2.167,7.455.383,12.814,3.237,18.981,6.953,1.582,1.032,3.288,1.779,5.074,2.73q8.382,4.432,16.974,8.447c32.16,15.942,65.458,32.382,73.911,69.63,3.871,17.112.075,35.1-3.473,52.527-.842,3.867-1.481,7.653-2.2,11.236-3.6,19.094-5.744,39.5-6.9,64.243-2.205,46.136-22.51,87.567-58.723,119.663a133.624,133.624,0,0,1-40.728,25.374c-26.358,10.318-56.566,12-97.964,5.572l-2.727-.347c-24.871-3.941-42.659-6.645-64.61-19.982a48.508,48.508,0,0,0-4.3-2.56c-7.3-4.215-15.623-9.211-19.979-15.523a91.163,91.163,0,0,1-7.033-13.753c-2.445-5.645-4.971-11.494-9.415-16.829-19.147-23.63-34.773-43.686-47.834-69.227-7.513-14.979-15.1-31.345-15.877-47.782Z" fill="#121212"/>
    <path id="Path_80" data-name="Path 80" d="M590.205,616.056l3.172.88c5.936,1.921,8.807,5.041,12.682,10.126,2.462,3.281,11.68,13.585,20.466,10.145,3.269-1.279,6.022-4.479,8.34-9.4,3.728-8.533,7.5-35.005-.869-43.753-3.52-3.574-8.531-3.735-14.873-.073a32.515,32.515,0,0,1-4.211,1.884,53.053,53.053,0,0,1-12.98,2.959,91.075,91.075,0,0,0-11.63,2.194l-2.247.88c-6.13,2.4-13.05,6.994-13.412,12.088-.22,7.867,9.3,10.508,15.562,12.065Zm-13.323-11.763c.15-3.831,6.332-7.9,12.053-10.141l2.043-.8c4.043-1.111,7.836-1.652,11.346-2.319a56.562,56.562,0,0,0,13.388-3.118,39.237,39.237,0,0,0,4.54-2.249c5.4-3.057,9.354-3.19,12.145-.274,7.28,7.761,3.921,32.891.4,41.344-1.864,4.267-4.289,7.1-7.15,8.222-5.925,2.32-13.1-3.361-17.986-9.229-4.24-5.414-7.191-8.739-13.7-10.909a27.378,27.378,0,0,0-3.172-.88c-5.98-1.432-14.235-3.86-13.908-9.647Z" fill="#121212"/>
    <path id="Path_81" data-name="Path 81" d="M451.622,728.545a182.788,182.788,0,0,1,11.5,22.144c4.214,8.961,8.589,18.331,14.2,26.039,7.707,10.659,22.635,14.483,36.017,17.97,2.4.711,4.719,1.218,7.118,1.929,8.459,2.348,17.158,5.309,26.551,8.235,25.369,8.225,51.592,16.824,76,17.174a114.153,114.153,0,0,0,42.192-7.792,120.256,120.256,0,0,0,56.03-45.276c7.086-10.791,15.613-17.9,23.732-24.852,10.579-9.093,20.7-17.537,27.292-32.613,8.7-19.911,10.415-43.219,12.167-65.833.857-11.654,1.751-22.615,3.373-32.917,1.445-8.347,2.971-16.49,4.656-24.223,4.816-23.815,9.42-46.367,6.345-72.279s-26.874-42.77-47.715-57.485c-6.772-4.658-13.055-9.273-18.645-13.922-31.515-26.334-66.89-37.246-94.777-29.63-15.761,4.283-32.1,9.5-51.545,16.4-14.747,5.065-24.85,4.539-37.6,3.871-3.136-.187-6.477-.294-10.1-.525-6.477-.294-13.007,1.083-19.954,3.8-7.561,2.96-14.969,7.51-22.049,11.7-1.883,1.209-3.642,2.133-5.525,3.342-4.788,2.818-9.86,5.51-14.728,8.123-10.962,5.706-22.253,11.776-32.1,20.345-31,26.753-42.345,74.817-45.1,88.862l-.257,1.751c-6.466,32.242-12.044,60.127.281,91.615,7.444,19.015,17.851,28.145,28.908,37.729C435.382,708.728,443.967,716.214,451.622,728.545ZM400.087,572.814l.257-1.751c2.83-13.84,14.212-61.211,44.394-87.644,9.637-8.489,20.8-14.275,31.766-19.98,4.868-2.613,9.94-5.306,14.932-8.2,1.883-1.208,3.642-2.133,5.525-3.341,7.08-4.187,14.284-8.657,21.64-11.537a47.767,47.767,0,0,1,19.057-3.687c3.545.028,6.966.339,10.1.526,13.035.793,23.342,1.238,38.5-3.987,19.447-6.9,35.785-12.121,51.341-16.324,27.194-7.58,61.876,3.367,92.742,29.247,5.591,4.65,12.078,9.184,18.93,14.048,21.57,15.372,43.992,31.117,46.87,55.928,2.995,25.709-1.484,47.976-6.3,71.79q-2.46,12.181-4.576,24.428c-1.747,10.587-2.436,21.467-3.294,33.121-1.627,22.33-3.422,45.434-12,65.061-6.543,14.586-16.18,23.075-26.635,31.883-8.323,7.031-16.974,14.426-24.265,25.3a117.359,117.359,0,0,1-54.964,44.388,108.624,108.624,0,0,1-41.294,7.676c-24.123-.225-50.061-8.7-75.226-17.005-9.189-3.005-18.092-5.887-26.552-8.234-2.319-.507-4.718-1.219-7.117-1.93-12.813-3.237-27.537-7.141-34.72-17.063-5.324-7.583-9.9-16.873-14.038-25.629-3.654-7.53-7.185-15.344-11.576-22.35-7.939-12.455-16.524-19.94-24.825-27.3-10.772-9.459-20.9-18.465-28.179-37.072-12.37-31-6.835-58.4-.494-90.352Z" fill="#121212"/>
    <path id="Path_82" data-name="Path 82" d="M482.829,712.556c3.636,4.472,5.841,9.5,7.886,14.126,1.8,4.009,3.486,8.3,6.188,12.2,3.992,5.983,11.581,10.322,18.033,14.163,1.217.7,2.515,1.609,3.732,2.311,19.436,11.728,36.043,14.423,57.128,17.723l2.523.427c36.431,5.782,63.174,4.274,86.467-4.844a122.469,122.469,0,0,0,36.021-22.353c32.029-28.336,49.732-64.976,51.735-105.609,1.05-21.4,2.847-39.078,6.022-55.647.594-3.3,1.188-6.6,2.067-9.769,3.166-15.387,6.377-31.264,2.942-46.66-7.626-33.328-37.147-47.945-65.531-62.065q-7.453-3.517-14.7-7.451c-1.5-.826-3-1.653-4.426-2.276-5.723-3.183-10.593-5.992-17.479-6.126-4.522-.117-9.257,1.03-13.788,2.1-3.918.826-8.165,2.017-12.2,1.945a41.118,41.118,0,0,1-10.342-1.139,50.477,50.477,0,0,0-12.706-1.157c-5.953.444-11.958,2.559-17.475,4.719a111.528,111.528,0,0,1-11.762,3.661c-7.348,1.7-15.139,2.861-22.727,3.944-11.585,1.706-23.783,3.651-35.057,7.357-11.887,3.945-22.537,11.651-32.779,19.2-4.628,3.227-8.847,6.293-13.146,9.155-23.54,15.109-38.006,37.749-44.143,69.626a105.451,105.451,0,0,1-3.726,13.956c-2.547,8.542-5.3,17.165-4.914,25.974.548,14.641,7.412,29.167,14.285,42.511,11.416,21.94,25.105,39.454,41.869,60.008Zm-54.11-103.319c-.43-8.32,2.322-16.943,4.744-25.2a105.37,105.37,0,0,0,3.727-13.956c6.217-31.672,19.9-53.3,43.317-68.123,4.3-2.862,8.723-6.009,13.351-9.235,9.38-6.737,19.088-13.839,29.509-17.918l2.656-1.039c11.07-3.626,23.064-5.492,34.649-7.2,7.587-1.084,15.379-2.247,22.931-4.024a115.58,115.58,0,0,0,11.966-3.742c5.6-1.955,11.4-3.99,17.067-4.558,4.078-.417,8.147.348,12.013,1.193a66.857,66.857,0,0,0,10.831,1.183,50.907,50.907,0,0,0,12.607-2.105c4.531-1.067,8.857-2.053,13.175-1.857,6.478.294,11.063,2.979,16.5,6.038l4.505,2.481c4.79,2.605,9.989,5.05,14.7,7.451,28.019,13.79,56.971,28.159,64.482,60.588,3.479,14.908.188,30.58-2.854,45.682-.594,3.3-1.393,6.676-1.987,9.974-3.175,16.569-4.972,34.25-5.942,55.851-1.958,40.145-19.413,76.216-50.909,104.108-11.236,9.821-22.74,17.154-35.408,22.113-22.884,8.958-49.139,10.51-85.285,4.853l-2.523-.427c-21.574-3.345-37.124-5.747-56.275-17.35-1.217-.7-2.435-1.405-3.732-2.311-6.372-3.637-13.677-7.851-17.3-13.505-2.623-3.69-4.3-7.983-6.108-11.993-2.206-5.031-4.411-10.063-8.126-14.739-16.56-20.634-30.169-37.944-41.461-60.168-7.442-13.593-14.146-27.71-14.817-42.067Z" fill="#121212"/>
    <path id="Path_83" data-name="Path 83" d="M562.617,667.175c6.639,6.126,13.359,12.456,21.6,17.248,13.472,7.931,31.971,8.235,50.769.877a74.4,74.4,0,0,0,10.917-5.217c23.772-13.314,38.956-39.536,37.09-63.564a54.688,54.688,0,0,0-1.122-8.285c-.819-5.1-1.594-10.694-.9-16.152.177-1.956.478-4.2.859-6.231,1.029-7.005,1.977-14.214.926-21.113-3.837-21.841-20.084-35.053-42.5-34.531a48.248,48.248,0,0,0-15.8,3.59c-2.452.959-5.028,2.2-7.276,3.084-2.452.959-4.824,2.124-7.276,3.083-4.086,1.6-9.683,3.555-15.671,3.3A70.587,70.587,0,0,0,567.1,548a82.812,82.812,0,0,0-18.495,10.54c-5.694,4.116-11.556,9-16.5,16.835-3.339,5.316-5.532,9.947-6.544,14.587s1.064,16.561,2.666,26.073c.784,4.409,1.327,8.205,1.8,10.614,1.177,12.036,5.729,19.451,15.949,26.3,5.759,3.876,11.1,9.095,16.646,14.233ZM531.736,626.21c-.267-2.489-.81-6.285-1.594-10.694-1.567-8.819-3.721-20.944-2.754-25.1s3.16-8.782,6.374-13.813c4.7-7.262,10.56-12.151,16.05-16.186A79.666,79.666,0,0,1,567.9,550.04a66.405,66.405,0,0,1,26.316-4.406c6.4.09,12.2-1.945,16.489-3.625,2.452-.96,4.824-2.124,7.275-3.084s4.824-2.124,7.276-3.084c5.926-2.319,10.661-3.465,15.1-3.554,21.519-.406,36.673,11.818,40.19,32.842,1.175,6.614.147,13.619-.962,20.419q-.571,3.094-.859,6.231c-.611,5.663.164,11.254.859,16.641l1.042,8.081c1.67,22.926-13.39,48.864-36.016,61.493a71.747,71.747,0,0,1-10.713,5.137c-18.185,7.118-35.991,6.779-48.814-.7-7.954-4.668-14.673-11-21.232-16.919-5.466-4.934-11.092-10.277-17.3-14.687-9.367-6.472-13.678-13.273-14.82-24.616Z" fill="#121212"/>
    <path id="Path_84" data-name="Path 84" d="M474.674,718.813c3.8,4.881,6.081,10.117,8.286,15.149a83.584,83.584,0,0,0,6.713,12.934c4.356,6.312,12.31,10.98,19.33,15.07,1.3.907,2.72,1.529,4.017,2.436,20.653,12.43,38.237,15.214,60.584,18.728l2.524.427c38.669,6.085,67,4.425,91.931-5.333A122.718,122.718,0,0,0,706.291,754.3c33.876-30.238,53.063-69.109,55-112.311.979-22.784,2.989-41.727,6.252-59.274.514-3.5,1.313-6.88,2.031-10.463,3.255-16.365,6.839-33.094,3.208-49.593-8.018-35.532-39.325-51.1-69.619-65.887q-7.879-3.7-15.552-7.825c-1.706-.747-3.288-1.778-4.789-2.6-6.008-3.307-11.162-6.241-18.617-6.624-4.807-.241-9.746.985-14.686,2.211a84.452,84.452,0,0,1-13.015,2.266,50.386,50.386,0,0,1-10.832-1.184,47.489,47.489,0,0,0-13.4-1.121c-6.361.6-12.571,2.8-18.576,4.914a124.2,124.2,0,0,1-12.376,3.9c-8.04,1.732-16.24,3.056-24.236,4.3-12.483,1.821-25.374,3.8-37.261,7.748-12.5,4.185-23.887,12.416-34.946,20.282-4.752,3.51-9.38,6.737-14.088,9.759-24.89,15.873-40.386,40.1-46.9,74.008-.932,4.844-2.476,9.929-3.9,14.729-2.671,8.827-5.591,18.223-5.17,27.725.663,15.539,7.848,30.883,15.121,45.249,12.34,23.7,26.918,42.281,44.731,64.311ZM417.106,609.067c-.466-9.014,2.33-18.125,5-26.952,1.42-4.8,2.964-9.885,4.02-15.014,6.6-33.708,21.188-56.632,46.078-72.506,4.708-3.021,9.336-6.248,14.088-9.759,9.913-7.181,20.155-14.727,31.393-19.126l2.86-1.12c11.683-3.866,24.574-5.846,36.772-7.792,8-1.244,16.481-2.443,24.441-4.38a88.31,88.31,0,0,0,12.58-3.981c6.006-2.115,12.011-4.23,18.168-4.754a50.473,50.473,0,0,1,12.706,1.157,63.107,63.107,0,0,0,11.32,1.228,72.812,72.812,0,0,0,13.5-2.22c4.735-1.147,9.471-2.293,14.073-1.972,6.966.338,11.836,3.148,17.559,6.331,1.5.827,3,1.654,4.79,2.605,5.074,2.73,10.557,5.3,15.632,8.029,29.8,14.742,60.543,30.062,68.57,64.411,3.595,15.806.215,32.455-3.12,48.616-.718,3.582-1.516,6.96-2.031,10.463-3.263,17.547-5.273,36.49-6.376,59.558-1.9,42.713-20.833,81.016-54.176,110.809a124.605,124.605,0,0,1-37.7,23.482c-24.519,9.6-52.444,11.1-90.829,5.137l-2.523-.427c-22.836-3.558-39.647-6.174-59.811-18.559-1.218-.7-2.72-1.529-4.017-2.436-6.737-3.965-14.406-8.509-18.6-14.412a78.633,78.633,0,0,1-6.552-12.526c-2.286-5.236-4.651-10.676-8.731-15.682-17.733-21.825-32.107-40.485-44.163-64.062-7.113-13.957-14.217-29.1-14.924-44.146Z" fill="#121212"/>
    <path id="Path_85" data-name="Path 85" d="M578.254,640.3c4.221,2.357,8.443,4.713,12.042,8.491l.809.863c5.058,5.094,8.942,9,16.379,11.744,7.074,2.419,15.185,2.073,23.767-1.286,11.647-4.559,22.554-14.016,27.8-24.087,7.974-15.147,3.473-29.655-1.268-44.776-.916-2.943-1.913-6.09-2.909-9.237-3.256-11.93-9.194-19.273-17.893-22.234-6.016-2.125-11.9-.295-16.8,1.625a45.826,45.826,0,0,0-5.028,2.2c-1.635.64-3.189,1.484-4.824,2.124l-.613.24a83.461,83.461,0,0,1-12.535,3.492,92.048,92.048,0,0,0-13.149,3.732,42.332,42.332,0,0,0-4.823,2.124c-15.422,8.159-27.686,24.985-20.207,44.694,2.882,7.36,7.2,12.979,13.449,16.9,1.866,1.156,3.733,2.312,5.8,3.387Zm1.675-63.141a37.257,37.257,0,0,1,4.619-2.044,92.188,92.188,0,0,1,12.944-3.652,83.732,83.732,0,0,0,12.945-3.652l.613-.24a47.868,47.868,0,0,0,5.028-2.2c1.634-.64,3.189-1.484,5.028-2.2,4.495-1.76,9.763-3.35,15.21-1.474,7.642,2.668,13.216,9.682,16.356,20.714,1,3.147,1.992,6.294,2.909,9.236,4.58,14.713,9.126,28.732,1.6,43.23-5.123,9.787-15.5,18.8-26.531,23.118-7.969,3.12-15.8,3.59-22.3,1.42-6.869-2.5-10.673-6.2-15.446-11.167l-.808-.862c-3.885-3.9-8.106-6.259-12.407-8.82-1.786-.951-3.652-2.107-5.519-3.263a29.778,29.778,0,0,1-12.56-15.833c-7.567-18.731,3.835-34.748,18.315-42.3Z" fill="#121212"/>
    <path id="Path_86" data-name="Path 86" d="M396.909,783.208c2.286,5.237,4.651,10.677,6.652,15.789,12.939,31.247,25.237,60.859,64.3,69.149,11.6,2.534,23.653,3.238,35.426,3.817,10.386.65,20.977,1.22,31.356,3.053,17.255,3.148,32.948,8.324,49.7,13.793,2.684.835,5.447,1.876,8.335,2.632,26.711,8.643,66.758,15.839,106.6.243a112.182,112.182,0,0,0,11.2-5.093c36.892-18.921,59.849-49.365,81.881-81.569,6.341-9.084,12.718-17.475,18.97-25.582,17.069-22.008,33.516-42.594,39.689-73.777,2.581-13.272,2.141-25.833,1.666-39.087a239.654,239.654,0,0,1-.071-24.259c.662-12.756,3.038-25.948,5.371-38.651,1.738-9.4,3.52-19.3,4.689-28.952,1.143-11.529,3.5-22.356,5.817-32.694,5.864-27.761,11.39-53.976-4.161-84.672-13.141-25.746-35.172-39.287-58.215-53.61-8.034-4.872-16.432-10.073-24.3-15.719q-10.06-7.357-19.819-15.114c-25.489-19.969-47.575-37.261-84.287-37.745-18.01-.26-36.107,5.881-53.59,11.781-1.839.72-3.758,1.236-5.6,1.955-2.532.756-5.188,1.8-7.64,2.755-7.436,2.675-15.2,5.715-22.743,6.309-5.056.329-10.307-.445-15.558-1.219a92.049,92.049,0,0,0-14.661-1.335c-23.029.762-40.656,3.889-57.615,10.527a285.854,285.854,0,0,1-29.735,9.518c-9.514,2.781-19.438,5.722-29.245,9.561-34.94,13.677-59.872,35.462-86.114,74.973-19.731,29.653-31.85,54.675-38.221,79.334-2.6,10.213-3.4,20.2-4.05,30.588-.221,2.444-.362,5.093-.583,7.538-.576,6.356-1.764,12.952-2.828,19.263-1.694,8.916-3.432,18.321-3.091,27.619.513,19.37,10.811,43.87,20.27,60.21,9.3,15.931,21.139,29.924,32.534,43.384,13.369,16.7,28.16,34.014,37.665,55.287ZM307.746,624.052c-.261-9.094,1.557-18.295,3.047-27.131a165.337,165.337,0,0,0,2.952-19.547c.221-2.445.362-5.094.583-7.538.645-10.392,1.326-20.09,4.006-30.1,6.246-24.374,18.365-49.4,37.973-78.765,25.992-38.942,50.6-60.363,85.127-73.88,9.6-3.759,19.527-6.7,29.041-9.481,9.72-2.862,19.927-5.678,29.939-9.6,16.551-6.478,34.177-9.605,56.8-10.207a76.529,76.529,0,0,1,14.172,1.29c5.251.774,10.787,1.673,16.251,1.184,7.748-.674,15.8-3.589,23.436-6.344,2.452-.96,5.109-2,7.64-2.755,1.839-.72,3.758-1.235,5.6-1.955C641.587,343.4,659.4,337.14,677,337.56c35.815.6,57.82,17.687,82.945,37.327,6.443,5.023,12.887,10.046,20.023,15.034,7.945,5.85,16.263,10.847,24.377,15.924,22.964,14.119,44.71,27.535,57.407,52.747,15.31,30.083,9.909,56.013,4.09,83.285-2.236,10.543-4.595,21.37-5.737,32.9-.965,9.574-2.828,19.263-4.566,28.668-2.332,12.7-4.913,25.974-5.495,38.935-.468,8.436-.118,16.552.151,24.464.476,13.254.835,25.61-1.621,38.6-6.129,30.7-22.168,51.121-39.113,72.845-6.252,8.106-12.913,16.373-19.173,25.661-21.908,31.92-44.456,62.2-81.02,80.76a111.1,111.1,0,0,1-11,5.013c-39.23,15.357-78.709,8.41-105.011-.394-2.684-.836-5.447-1.876-8.335-2.632-16.75-5.469-32.523-10.849-49.983-13.918a244.188,244.188,0,0,0-31.56-2.972c-11.569-.659-23.626-1.363-35.142-3.693-37.8-8.076-49.937-37.279-62.636-67.913-2.285-5.236-4.366-10.552-6.651-15.788-9.586-21.478-24.457-39-38.883-55.99-11.395-13.46-23.155-27.249-32.17-43.055-9.379-16.135-19.516-40.227-20.154-59.312Z" fill="#121212"/>
    <path id="Path_87" data-name="Path 87" d="M280.291,872.952c.43,8.32.735,16.925,3.9,24.411,3.246,7.689,8.828,13.521,14.125,19.229,4.853,5.174,9.866,10.757,13.485,17.594,2.009,3.929,3.734,7.734,5.459,11.539,4.855,10.6,9.266,20.66,18.74,29.212,15.509,13.736,36.354,16.423,56.426,18.941,8.184,1.041,16.856,2.126,24.666,4.021,15.541,3.581,30.895,4.881,45.76,6.141,12.91,1.07,26.309,2.2,39.575,4.78,37.56,7.47,66.394,15.51,93.133,26.03,28.649,11.19,54.667,19.87,85.006,11.29a167.541,167.541,0,0,0,18.1-6.14c5.722-2.24,11.363-4.68,16.8-7.04s11.078-4.81,16.8-7.05c13.69-5.36,24.795-8.29,35.972-9.84a67.863,67.863,0,0,0,15.636-4c16.959-6.64,27.119-19.808,38.22-33.586,4.769-5.875,9.458-11.955,14.921-17.866,9.609-10.364,18.286-21.306,26.634-31.883s17.149-21.8,26.759-32.168c12.976-13.8,21.927-28.861,31.739-44.728,5.772-9.333,11.588-19.155,18.542-28.48,5.39-7.3,10.985-14.675,16.376-21.972,31.554-41.59,64.011-84.478,51.111-137.9-7.32-30.145-10.113-55.933-.42-83.543a147.48,147.48,0,0,1,7.54-16.862,147.149,147.149,0,0,0,8.08-18.489c3.62-10.614,3.31-19.219,2.97-28.517-.09-4.445-.26-9.094.1-14.187.5-6.561,2.74-12.863,4.95-19.859s4.83-14.151,5.29-21.4c.96-15-4.62-26.251-10.32-38.4q-1.98-4.174-3.97-8.348c-16.01-35.47-28.428-53.953-52.862-79.05-20.549-21.2-44.707-44.986-67.894-62.083-12.282-9.1-26.171-15.692-39.492-22.032-15.107-7.291-30.7-14.626-43.99-25.695-21.348-17.817-31.363-24.743-55.045-35.279-27.948-12.4-60.138-12.772-90.583-.855-5.925,2.32-12.677,6.141-19.632,10.043a174.805,174.805,0,0,1-23.23,11.687,52.036,52.036,0,0,1-12.127,3.332c-6.281.809-21.565-4.527-34.654-9.071-11.748-4.126-22.846-7.8-28.55-7.923-16.909-.455-29.648,3.117-43.081,6.724-9.391,2.5-19.19,5.154-30.855,6.655-12.074,1.661-20.426,1.393-28.494,1.25-9.534-.276-18.578-.508-33.309,2.192a96.923,96.923,0,0,0-16.417,5.012c-38.822,15.2-93.966,56.118-114.883,74.916-34.409,30.683-50.261,53.393-72.753,92.851-19.81,34.871-90.373,214.58-62.869,277.618,14.192,32.644,29.9,52.9,50.627,77.566,8.524,10.339,14.633,22.332,20.581,33.915,7.273,14.366,14.99,29.266,27.131,41.019,1.458,1.316,2.631,2.507,4.089,3.823,10.078,9.495,18.9,17.594,23.529,31.817,1.868,6.579,2.306,13.717,2.664,20.651Zm-24.675-54.006c-1.377-1.111-2.631-2.507-4.088-3.823-11.981-11.344-19.414-26.119-26.687-40.485-6.028-11.788-12.216-23.985-21.025-34.449-20.524-24.741-36.151-44.8-50.263-77.237-27.263-62.424,42.883-240.791,62.693-275.662,22.287-39.378,38.138-62.088,72.219-92.406,20.793-18.515,75.732-59.356,114.35-74.472a91.641,91.641,0,0,1,16.009-4.852c14.526-2.621,23.366-2.309,32.82-2.237,8.068.144,16.42.411,28.7-1.33,11.87-1.581,21.669-4.238,31.059-6.735,13.433-3.607,25.969-7.1,42.672-6.564,5.216.08,16.4,3.957,27.858,7.959,14.146,4.837,28.861,9.924,35.631,9.16a55.07,55.07,0,0,0,12.616-3.288c7.764-3.039,15.661-7.545,23.354-11.971,6.956-3.9,13.5-7.644,19.632-10.043,29.832-11.677,61.534-11.354,88.912.8,23.4,10.412,33.13,17.213,54.4,34.826,13.367,11.273,29.247,18.733,44.354,26.024,13.321,6.34,27.006,13.008,39.209,21.908,22.982,17.177,47.14,40.967,67.609,61.957,24.354,24.893,36.485,43.251,52.415,78.517,1.4,2.987,2.73,5.77,4.05,8.552,5.75,11.664,11.13,23,10.13,37.3-.34,6.969-2.75,14.044-5.04,20.836-2.17,6.507-4.58,13.582-5,20.347a130.475,130.475,0,0,0-.02,14.392c.18,8.889.49,17.494-2.81,27.744a141.867,141.867,0,0,1-7.95,18.2,151.205,151.205,0,0,0-7.66,17.147c-9.942,28.178-7.072,54.171.41,84.725,12.79,52.529-19.548,95.132-50.853,136.153-5.471,7.093-10.986,14.676-16.376,21.973-6.874,9.529-12.77,19.147-18.462,28.684-9.608,15.787-18.843,30.72-31.41,44.364-9.814,10.444-18.411,21.59-26.963,32.248-8.348,10.577-17.025,21.519-26.431,31.8a229.081,229.081,0,0,0-15.044,18.151c-11.146,14.266-20.933,26.581-37.279,32.981a65.686,65.686,0,0,1-15.227,3.84c-11.257,1.34-22.487,4.56-36.381,10-5.721,2.24-11.362,4.68-16.8,7.05s-11.077,4.8-16.8,7.04a163.585,163.585,0,0,1-17.892,6.06c-29.726,8.34-55.38-.01-83.744-11.07-27.023-10.65-55.858-18.69-93.621-26.08-13.551-2.71-26.95-3.83-39.86-4.91-14.865-1.25-30.138-2.348-45.475-6.012-8.015-1.815-16.687-2.9-24.951-4.146-19.867-2.6-40.428-5.16-55.288-18.442-9.11-8.224-13.645-18-18.216-28.475-1.725-3.8-3.45-7.61-5.539-11.744-3.779-7.245-8.792-12.828-13.725-18.207-5.377-5.912-10.515-11.21-13.68-18.7-3.086-7.28-3.515-15.6-3.865-23.717-.438-7.138-.751-14.561-2.824-21.059-4.5-14.508-14.055-23.265-23.85-32.636Z" fill="#121212"/>
    <path id="Path_88" data-name="Path 88" d="M322.777,892.4c.471,2.409.863,4.614,1.255,6.818,5.065,26.784,8.2,44.421,38.181,57.208,25.148,10.67,53.545,11.58,83.087,11.8,41.564.236,77.756,10.827,116.348,22.13q14.821,4.455,30.256,8.67c31.154,8.551,55.569,7.721,82.613,3.971,8.974-1.15,18.96-1.52,29.64-1.93,19.28-.71,39.129-1.171,55.271-7.489,22.067-8.638,42.087-27.322,61.534-57.1,15.78-24.1,32-46.479,52.272-72.336,17.682-22.249,36.145-45.51,51.525-70.63,4.04-6.533,8.489-13.226,13.143-20,14.91-22.106,30.193-45.066,35.106-71.04,5.383-28.988,1.641-58.412-1.7-86.814l-.312-2c-3.734-30.607,5.177-57.2,15.458-81.505l4.723-10.809c11.144-25.112,23.574-53.556,13.494-80.5-7.319-19.3-22.093-38.983-35.089-56.532-4.116-5.7-8.071-10.988-11.743-16.153-6.978-10-15.3-15-24.183-20.244-4.017-2.436-8.4-5.2-12.655-8.251-5.634-4.161-10.2-9.21-14.692-14.056-5.217-5.5-10.594-11.415-17.366-16.074a146.038,146.038,0,0,0-19.08-10.216,177.234,177.234,0,0,1-15.916-8.153,140.839,140.839,0,0,1-16.9-12.483,160.711,160.711,0,0,0-13.091-9.966c-9.936-6.722-18.842-15.025-27.668-23.124-10-9.291-20.486-18.626-31.968-25.685-27.709-17.213-56.822-9.118-82.3-1.974a95.519,95.519,0,0,0-11.193,3.91c-4.5,1.76-9.319,3.884-14.347,6.088s-10.261,4.488-15.573,6.567c-11.238,4.4-25.657,9.1-37.5,7.134-6.309-1.067-11.419-4.49-16.529-7.913-4.541-3.174-9.083-6.348-15.143-7.984-9.232-2.517-17.112-.376-24.264,2.424l-5.312,2.079-5.517,2.16a68.453,68.453,0,0,1-6.618,2.355c-22.948,6.389-48.021,7.95-76.889,4.632-16.287-1.878-29.214-.59-41.065,4.049-10.421,4.079-20.618,11.136-32.68,22.459-13.58,12.862-28.22,20.007-43.882,27.553-7.933,3.812-16.274,7.785-24.7,12.736-19.765,11.509-35.12,33.082-49.248,54.175-20.309,30.586-37.72,66.169-52.064,105.974-3.533,9.636-7.723,20-12.153,29.751-7.75,18.125-15.749,36.819-19.75,54.89-5.561,25.521-7.462,51.967-4.975,74.573,2.718,24.4,12.67,51.631,27.907,74.9,8.383,12.989,18.658,23.586,28.648,34.059,5.866,5.956,11.893,12.322,17.51,18.847,29.955,33.783,64.907,80.936,76.105,139.039ZM249.053,751.013c-5.7-6.73-11.724-13.1-17.59-19.052-10.355-10.8-20.186-20.866-28.489-33.65-14.872-22.945-24.948-49.89-27.507-73.883-2.327-22.2-.55-48.358,4.807-73.8,4-18.072,11.876-36.481,19.421-54.526,4.146-9.875,8.621-20.115,12.073-29.956,14.5-39.4,31.915-74.978,52.1-105.28,13.924-21.013,29.154-42.3,48.511-53.651,8.43-4.951,16.567-8.843,24.5-12.656,15.866-7.625,30.71-14.851,44.495-27.792,11.857-11.244,21.726-17.937,31.942-21.936,11.443-4.479,24.165-5.686,39.963-3.853,29.153,3.443,54.635,1.721,77.786-4.748,2.124-.6,4.371-1.475,6.823-2.434l5.517-2.16,5.312-2.08c7.765-3.039,14.7-4.576,22.878-2.353,5.492,1.388,10.033,4.562,14.29,7.611,5.11,3.423,10.38,7.255,17.382,8.287,12.333,2.01,27.16-2.851,38.807-7.409,5.312-2.08,10.545-4.364,15.573-6.568s9.647-4.248,14.143-6.008q5.424-2.113,10.989-3.83C707.85,212.3,736.27,204.243,763.33,221c11.278,7.139,21.561,16.554,31.684,25.56,8.826,8.1,17.936,16.323,27.952,23.249,4.541,3.174,8.754,6.713,12.886,10.047a155.514,155.514,0,0,0,17.188,12.607c5.235,3.138,10.718,5.708,16,8.358,6.336,2.943,12.957,6.01,18.795,10.091,6.692,4.454,11.99,10.162,17,15.745,4.489,4.845,9.137,10.1,14.772,14.26a140.91,140.91,0,0,0,12.939,8.376c8.6,5.121,16.716,10.2,23.454,19.586,3.672,5.165,7.707,10.659,11.823,16.357,12.916,17.345,27.486,37.108,34.648,56,10.04,26.252-2.35,54.208-13.445,78.83-1.616,3.7-3.312,7.191-4.723,10.809-10.4,24.587-19.44,51.468-15.751,82.563l.312,2c3.546,28.323,7,57.622,1.746,86.326-4.665,25.405-19.948,48.365-34.734,70.187-4.449,6.693-8.9,13.386-13.142,20-15.38,25.12-33.719,48.1-51.321,70.55-20.48,25.937-36.7,48.319-52.476,72.416-19.119,29.413-39.015,47.812-60.593,56.495l.4,1.022-.4-1.022c-15.938,6.238-35.5,6.823-54.578,7.452-10.679.407-20.746.575-29.844,2.016-26.84,3.67-51.051,4.42-81.716-4.091-10.29-2.81-20.455-5.905-30.256-8.67-38.592-11.3-75.068-22.019-116.836-22.175-29.258-.1-57.451-1.09-82.03-11.511C334.238,942.144,331.06,925,326.235,898.825c-.392-2.2-.783-4.409-1.255-6.818-11.154-58.591-46.47-106.074-75.927-140.994Z" fill="#121212"/>
    <path id="Path_89" data-name="Path 89" d="M287.744,845.04c1.913,6.09,2.351,13.228,2.628,19.957.35,8.116.779,16.437,3.865,23.717,3.165,7.486,8.463,13.193,13.68,18.7,4.773,4.97,9.706,10.349,13.041,17.061,1.929,3.724,3.654,7.529,5.3,11.13,4.49,10.267,9.025,20.046,18.135,28.27,14.941,13.487,35.217,15.925,54.8,18.4,7.979,1.121,16.367,2.082,23.893,3.852,15.053,3.54,29.918,4.795,44.5,5.925,12.422,1.033,25.536,2.03,38.394,4.778,36.5,7.166,64.359,15.126,90.448,25.2,27.8,10.81,53.042,19.32,82.483,10.86,5.269-1.59,11.15-3.42,17.688-5.98,5.517-2.16,10.954-4.52,16.39-6.89,5.233-2.28,10.67-4.65,16.186-6.8,13.282-5.2,24.1-8.26,34.87-9.65a65.948,65.948,0,0,0,15.228-3.835c16.346-6.4,26.461-19.082,36.95-32.62,4.565-5.795,9.129-11.59,14.592-17.5,9.281-10,17.629-20.577,25.773-31.075,8.223-10.293,16.492-21.075,25.977-31.154,12.443-13.36,21.35-27.928,30.833-43.431,5.648-9.048,11.34-18.586,17.885-27.75,5.186-7.218,10.657-14.311,15.923-21.324,30.648-40.293,62.2-81.883,49.655-133.8-7-29.327-9.881-54.138-.357-80.974a136.1,136.1,0,0,1,7.289-16.293,137.512,137.512,0,0,0,7.83-17.92c3.5-10.33,3.07-18.65,2.89-27.54-.09-4.444-.18-8.889.05-13.7.37-6.276,2.62-12.578,4.79-19.085,2.29-6.791,4.5-13.787,5.04-20.836.91-14.508-4.59-25.558-10.13-37.3-1.24-2.578-2.57-5.361-3.89-8.144-15.609-34.448-27.583-52.4-51.208-76.632-20.025-20.457-43.454-43.589-65.787-60.313-11.918-8.775-25.319-15.319-38.276-21.33-14.538-7.042-29.849-14.253-42.487-24.868-20.9-17.283-30.351-23.96-53.384-34.043-27.095-12.031-58.308-12.31-87.935-.712-5.721,2.239-12.268,5.981-19.019,9.8-7.364,4.062-15.057,8.488-22.413,11.368a49.542,49.542,0,0,1-11.718,3.172c-6.077.728-20.792-4.358-33.6-8.778-11.463-4-22.073-7.629-27.573-7.834-16.215-.491-28.75,3-41.774,6.449a252.06,252.06,0,0,1-29.958,6.539,153.664,153.664,0,0,1-27.6,1.135c-9.25-.152-18.09-.464-32.332,2.281a89.986,89.986,0,0,0-16.009,4.852c-37.6,14.717-91.265,54.588-111.525,72.658-33.423,29.59-48.742,51.856-70.532,90.1-20.13,34.053-88.412,208.153-61.629,269.351,13.872,31.825,29.054,51.348,49.054,75.352,8.364,9.93,14.188,21.8,19.976,32.973,7.113,13.957,14.466,28.528,26.367,39.667,1.377,1.112,2.631,2.507,4.008,3.619,9.8,9.37,18.256,17.14,22.721,30.955Zm-21.2-32.493c-1.173-1.191-2.631-2.507-3.8-3.7-11.616-11.016-18.889-25.382-25.922-39.134-5.868-11.38-11.9-23.168-20.341-33.3-20-24-35.1-43.322-48.814-74.739-26.462-60.38,41.731-233.5,60.759-267.36,21.586-38.16,36.985-60.222,70.079-89.446,20.261-18.07,73.6-57.578,110.788-72.135a86.7,86.7,0,0,1,15.6-4.692c14.118-2.46,22.674-2.273,31.923-2.121a156.9,156.9,0,0,0,27.8-1.214,189.284,189.284,0,0,0,30.162-6.62c13.024-3.447,25.355-6.859,41.286-6.493,5.216.08,15.825,3.708,27,7.585,13.658,4.793,28.089,9.755,34.575,8.867a52.752,52.752,0,0,0,12.331-3.412c7.56-2.96,15.252-7.386,22.617-11.447,6.751-3.822,13.093-7.484,19.019-9.8,29.014-11.358,59.534-11.043,86.06.738,22.829,10.163,32.2,16.636,52.815,33.795,13,10.944,28.314,18.155,43.056,25.117,12.752,6.091,26.153,12.635,37.991,21.2,22.254,16.519,45.683,39.652,65.708,60.109,23.544,24.03,35.439,41.775,50.755,76.1,1.33,2.782,2.65,5.565,3.9,8.143,5.46,11.539,10.8,22.18,9.93,36.2-.42,6.764-2.71,13.556-4.87,20.062s-4.33,13.014-4.83,19.574a88.232,88.232,0,0,0,.02,13.9c.31,8.6.45,16.8-2.72,26.766a132.611,132.611,0,0,1-7.7,17.636,141.321,141.321,0,0,0-7.414,16.578c-9.568,27.325-6.734,52.624.349,82.156,12.355,50.813-19.079,92.119-49.194,131.966-5.266,7.014-10.737,14.107-15.923,21.324-6.545,9.165-12.441,18.782-18.089,27.831-9.359,15.218-18.266,29.787-30.505,43.066-9.405,10.284-17.958,20.941-26.1,31.439-8.02,10.213-16.368,20.79-25.649,30.79-5.462,5.911-10.027,11.706-14.592,17.5-10.817,13.9-20.275,25.857-36.008,32.015a59.191,59.191,0,0,1-14.615,3.594c-10.972,1.47-21.873,4.32-35.358,9.6-5.517,2.16-10.954,4.53-16.391,6.89-5.232,2.28-10.873,4.73-16.186,6.81a160.367,160.367,0,0,1-17.483,5.9c-28.829,8.22-53.79-.17-81.1-10.94-26.17-10.27-54.151-17.94-90.733-25.315-13.062-2.668-26.176-3.665-38.6-4.7-14.376-1.21-29.161-2.261-44.009-5.881-7.811-1.894-16.2-2.855-24.178-3.976-19.3-2.349-39.166-4.946-53.662-17.9-8.746-7.9-13.2-17.469-17.611-27.532-1.645-3.6-3.37-7.406-5.379-11.335-3.7-7.041-8.632-12.419-13.485-17.594-5.3-5.707-10.15-10.881-13.156-17.958-2.926-6.872-3.355-15.192-3.829-23.024-.358-6.933-.591-14.152-2.868-20.57-4.794-13.45-13.984-21.878-23.414-30.92Z" fill="#121212"/>
    <path id="Path_90" data-name="Path 90" d="M261.07,888.257c.385,8.81.85,17.824,4.256,25.922s9.148,14.34,14.81,20.376c5.217,5.5,10.515,11.211,14.169,18.741,2.089,4.133,3.974,8.347,5.78,12.357,5.1,11.21,9.745,21.886,19.868,30.893,16.318,14.594,38.425,17.494,59.679,20.024,8.672,1.09,17.833,2.22,26.132,4.16,16.394,3.95,32.645,5.14,48.487,6.48,13.6,1.04,27.775,2.33,42.019,5.01,39.878,7.97,70.259,16.36,98.624,27.42,30.275,11.73,57.919,20.95,89.973,11.94a190.762,190.762,0,0,0,19.118-6.54c6.13-2.4,11.975-4.93,17.821-7.45s11.69-5.05,17.82-7.45c14.507-5.68,26.225-8.85,38.1-10.43a66.222,66.222,0,0,0,16.534-4.11c17.776-6.96,28.8-20.94,40.271-35.58,4.894-6.155,9.912-12.6,15.907-18.955a431.012,431.012,0,0,0,27.993-33.83c8.8-11.226,18.055-23.1,28.4-33.99,13.553-14.737,23.365-30.6,33.551-47.323,6.02-9.9,12.369-20.169,19.491-30.267,5.64-7.866,11.563-15.608,17.282-23.27,33.238-43.9,67.8-89.26,54.1-145.914-7.75-31.86-10.7-59.24-.46-88.476a161.371,161.371,0,0,1,7.91-17.716,123.619,123.619,0,0,0,8.57-19.627c3.59-11.307,3.33-20.4,3.11-29.983a121.334,121.334,0,0,1,.07-14.881c.41-6.765,2.7-13.556,5.24-20.916s5-14.925,5.5-22.668c.93-15.689-4.77-27.842-10.91-40.528-1.41-2.987-2.73-5.769-4.22-8.961-16.88-37.719-29.91-57.144-55.8-83.557-21.723-22.386-47.338-47.493-71.9-65.7-12.931-9.558-27.673-16.52-41.643-23.313-15.96-7.664-32.489-15.577-46.424-27.1-22.726-18.928-33.106-26.183-58.13-37.137-29.449-13.231-63.434-13.368-95.8-.935-6.334,2.479-13.494,6.461-20.778,10.727-8.1,4.586-16.407,9.252-24.376,12.371a47.1,47.1,0,0,1-12.819,3.368c-6.771.764-22.828-4.74-36.77-9.658-12.52-4.295-24.268-8.421-30.176-8.466-17.806-.34-31.238,3.268-45.568,6.991-10,2.737-20.212,5.554-32.57,7.09-12.767,1.7-21.608,1.385-30.084,1.4-10.92-.205-20.373-.277-35.8,2.459a103.849,103.849,0,0,0-17.315,5.127c-41.069,16.077-99.49,59.459-121.678,79.227-36.337,32.38-53.3,56.468-76.989,98.282-21.088,37.022-95.637,227.016-66.488,293.654,15.2,34.608,31.712,55.731,53.569,82.073,8.969,10.872,15.6,23.6,21.87,36,7.877,15.309,15.915,31.026,28.705,43.233a56.014,56.014,0,0,1,4.168,4.027c10.728,9.948,20,18.581,24.739,33.7,2.357,6.623,2.546,14.33,3.064,21.673Zm-26.284-56.913a56.017,56.017,0,0,1-4.168-4.027c-12.71-12-20.668-27.515-28.261-42.7-6.268-12.4-12.981-25.336-22.03-36.413-21.777-26.138-38.293-47.261-53.125-81.54C98.294,600.64,172.345,411.784,193.31,375.046c23.566-41.528,40.323-65.537,76.536-97.632,21.983-19.688,80.2-62.991,120.86-78.907a81.488,81.488,0,0,1,16.907-4.968,147.648,147.648,0,0,1,34.7-2.263A193.993,193.993,0,0,0,472.676,190c12.563-1.617,22.975-4.514,32.978-7.25,14.25-3.928,27.479-7.456,45.08-7.036,5.7.125,17.167,4.127,29.483,8.5,15,5.211,30.488,10.466,37.747,9.747a51.1,51.1,0,0,0,13.433-3.608c8.173-3.2,16.683-7.945,24.784-12.531,7.364-4.062,14.24-8.168,20.574-10.648,31.67-12.4,65.043-12.02,94.127.882,24.82,11.034,35.12,18.085,57.561,36.888,14.3,11.852,30.829,19.765,46.789,27.429,13.97,6.793,28.632,13.551,41.359,23.189,24.28,18.083,49.9,43.19,71.618,65.576,25.611,26.288,38.631,45.713,55.361,83.024q2.1,4.48,4.21,8.961c6.06,12.481,11.6,24.225,10.72,39.426-.46,7.253-2.92,14.818-5.25,22.1-2.42,7.076-4.75,14.356-5.29,21.4-.28,5.3-.24,10.232-.19,15.166.42,9.5.6,18.392-3.14,29.29-2.09,6.711-5.31,12.924-8.46,19.342a168.52,168.52,0,0,0-8.03,18c-10.48,29.8-7.46,57.39.46,89.659,13.5,55.551-20.73,100.546-53.643,144.083-5.719,7.662-11.642,15.4-17.281,23.27-7.2,9.893-13.472,20.364-19.7,30.346-10.185,16.72-19.793,32.507-33.222,46.959-10.267,11.093-19.521,22.968-28.322,34.2s-17.93,22.817-27.869,33.545a224.911,224.911,0,0,0-15.826,19.164c-11.8,15-22.167,28.247-39.33,34.967a62.563,62.563,0,0,1-16.125,3.95c-11.87,1.58-23.792,4.84-38.5,10.6-5.926,2.32-11.976,4.92-17.821,7.44s-11.691,5.05-17.821,7.45a183.808,183.808,0,0,1-18.913,6.46c-31.441,8.77-58.721-.12-88.508-11.8-28.444-11.27-59.109-19.78-98.988-27.75-14.323-2.88-28.415-3.97-42.3-5.13-15.558-1.22-31.889-2.61-48-6.45a236.493,236.493,0,0,0-26.417-4.27c-21.049-2.61-42.667-5.47-58.541-19.532-9.759-8.677-14.329-19.15-19.344-30.155-1.8-4.01-3.69-8.223-5.78-12.357-3.939-7.654-9.316-13.566-14.533-19.07-5.742-6.241-11.04-11.948-14.285-19.638s-3.631-16.5-4.141-25.024c-.393-7.627-.787-15.254-3.1-22.366-5.061-15.939-15.06-25.23-25.5-35.054Z" fill="#121212"/>
    <path id="Path_91" data-name="Path 91" d="M270.209,880.907c.51,8.525.895,17.334,4.221,25.228s8.987,13.931,14.365,19.843c4.933,5.379,10.23,11.086,13.929,18.127,2.089,4.134,3.894,8.143,5.619,11.948,5.015,11.006,9.506,21.273,19.265,29.951,15.953,14.266,37.491,16.916,58.336,19.606,8.468,1.17,17.344,2.17,25.439,4.19,16.11,3.83,31.872,4.97,47.226,6.27,13.4,1.12,27,2.17,40.837,5,38.821,7.68,68.429,15.9,96.02,26.79,29.5,11.56,56.294,20.41,87.654,11.43a177.328,177.328,0,0,0,18.71-6.38c5.925-2.32,11.771-4.84,17.412-7.29s11.486-4.96,17.207-7.2c14.1-5.52,25.613-8.62,36.994-10.24a62.971,62.971,0,0,0,16.124-3.95c17.368-6.8,28.061-20.42,39.411-34.767,4.689-6.079,9.786-12.319,15.373-18.515,9.734-10.648,18.739-21.954,27.416-32.9s17.6-22.453,27.541-33.181C912.532,890.5,922.1,875.2,931.952,858.845c5.9-9.618,12.041-19.8,19.119-29.413q8.3-11.395,16.829-22.623c32.46-42.888,66.03-87.153,52.69-142.3-7.44-31.042-10.55-57.649-.48-86.111a156.226,156.226,0,0,1,7.78-17.432c3.02-6.133,6.25-12.346,8.33-19.058,3.67-11.1,3.28-19.911,3.14-29.29a131.165,131.165,0,0,1-.05-14.6c.41-6.765,2.78-13.352,4.99-20.348,2.42-7.075,4.87-14.64,5.25-22.1.81-15.4-4.73-27.149-10.8-39.63-1.32-2.783-2.73-5.77-4.13-8.757-16.49-36.7-29.35-55.713-54.513-81.468-21.2-21.648-46.165-46.3-70.081-64.056-12.646-9.433-26.82-16.146-40.71-22.735-15.595-7.335-31.555-15-45.207-26.4-22.076-18.475-32.3-25.321-56.627-36.311-28.8-12.777-61.889-13.03-93.435-.917-6.13,2.4-13.085,6.3-20.245,10.283-7.9,4.506-16,9.092-23.763,12.131a55.894,55.894,0,0,1-12.535,3.492c-6.566.684-22.054-4.571-35.917-9.284-12.031-4.25-23.494-8.252-29.4-8.3-17.4-.5-30.545,3.232-44.467,6.795-9.594,2.577-19.6,5.314-31.956,6.851a180.1,180.1,0,0,1-29.187,1.285c-9.738-.2-19.067-.553-34.206,2.308a98.457,98.457,0,0,0-16.906,4.967c-40.048,15.677-96.79,57.931-118.525,77.049-35.2,32.878-51.5,56.238-74.617,97.118-20.592,35.884-93.027,221.042-64.6,285.84,14.592,33.666,30.948,54.38,52.076,80.064,8.889,10.668,15.157,23.07,21.265,35.062,7.513,14.98,15.391,30.288,28.021,42.086,1.457,1.316,2.71,2.711,4.168,4.027,10.443,9.824,19.349,18.128,24.134,32.76,2.073,6.5,2.386,13.921,2.824,21.06ZM244.77,825.55c-1.458-1.316-2.631-2.508-4.089-3.823-12.345-11.674-19.938-26.857-27.575-41.552-6.189-12.2-12.457-24.6-21.63-35.392-21.049-25.479-37.12-46.069-51.836-79.45-27.984-64.264,44.239-248.161,64.626-283.965,22.989-40.6,39.293-63.955,74.44-95.162,21.531-19.038,78.068-61.212,117.708-76.729a95.186,95.186,0,0,1,16.417-5.012c14.935-2.781,24.264-2.424,33.8-2.147a163.626,163.626,0,0,0,29.675-1.242c12.358-1.536,22.362-4.273,32.161-6.93,13.841-3.767,26.866-7.215,43.774-6.76,5.5.205,16.883,4,28.63,8.128,14.715,5.087,29.715,10.3,36.689,9.454a47.743,47.743,0,0,0,13.024-3.448c7.969-3.119,16.275-7.785,24.172-12.291,7.16-3.982,14.115-7.884,20.245-10.283,30.853-12.077,63.328-11.585,91.56.943,24.251,10.786,34.267,17.712,56.263,35.982,13.732,11.6,29.9,19.187,45.572,26.727,13.6,6.464,27.859,13.381,40.345,22.4,23.836,17.551,48.518,42.079,69.716,63.727,25.085,25.551,37.665,44.443,53.985,80.731,1.41,2.987,2.73,5.769,4.14,8.756,5.9,12.073,11.36,23.612,10.6,38.528-.46,7.254-2.87,14.33-5.29,21.4-2.29,6.792-4.7,13.867-5.24,20.917a121.318,121.318,0,0,0-.07,14.88c.34,9.3.65,17.9-2.97,28.517a152.329,152.329,0,0,1-8.2,18.774,156.183,156.183,0,0,0-7.79,17.431c-10.31,29.032-7.33,55.923.27,87.374,13.14,54.04-20.1,97.941-52.309,140.26-5.595,7.378-11.518,15.12-16.829,22.622-7,9.813-13.223,19.795-19.039,29.617-9.936,16.151-19.42,31.653-32.52,45.742-10.143,10.808-19.068,22.319-27.745,33.261s-17.478,22.168-27.212,32.816c-5.791,6.276-10.684,12.436-15.578,18.595-11.678,14.714-21.589,27.314-38.344,33.874a67.86,67.86,0,0,1-15.636,4c-11.665,1.5-23.179,4.59-37.482,10.19-5.925,2.32-11.771,4.84-17.412,7.29s-11.486,4.97-17.412,7.29a180.48,180.48,0,0,1-18.505,6.3c-30.543,8.65-57.05-.07-86.268-11.51-27.8-10.81-57.484-19.23-96.3-26.91a327.31,327.31,0,0,0-41.041-4.92c-15.354-1.3-30.912-2.52-46.737-6.23-8.3-1.93-17.176-2.94-25.643-4.11-20.561-2.56-41.61-5.165-56.915-18.981-9.395-8.348-13.885-18.616-18.74-29.212-1.725-3.8-3.61-8.019-5.62-11.948-3.858-7.45-9.156-13.158-14.169-18.741C284.767,919.3,279.55,913.8,276.3,906.109c-3.165-7.485-3.471-16.09-3.9-24.411-.314-7.423-.627-14.845-2.86-21.753-5.061-15.939-14.7-24.9-24.774-34.4Z" fill="#121212"/>
    <path id="Path_92" data-name="Path 92" d="M377.6,799.492c2.525,5.849,5.131,11.9,7.576,17.548,14.584,34.848,28.163,67.732,71.658,77.115,12.857,2.748,26.38,3.585,39.415,4.378,11.568.659,23.341,1.238,34.777,3.364,19.21,3.327,36.813,9.169,55.27,15.385,2.968.96,6.22,2.045,9.188,3.005,29.679,9.6,74.284,17.609,118.623.253q6.447-2.523,12.632-5.652c41.228-21.09,66.573-55.062,91.2-90.875,6.837-10.222,14.28-19.5,21.393-28.417,19.166-24.48,37.22-47.581,44.192-82.142,2.918-14.819,2.406-28.766,1.779-43.612-.385-8.809-.646-17.9-.214-27.032.795-14.223,3.508-28.962,5.973-43.131,1.951-10.667,4.027-21.619,5.08-32.17,1.355-12.792,3.927-24.881,6.456-36.482,6.537-30.854,12.737-60.162-4.663-94.379-14.546-28.732-39.091-43.882-64.855-59.735-8.966-5.45-18.3-11.229-27.176-17.658-7.865-5.645-15.037-11.326-22.129-16.8-28.449-22.111-53.005-41.5-93.752-42.057-19.964-.438-40.1,6.5-59.631,13.2-2.043.8-4.166,1.395-6.209,2.2-2.941.915-5.8,2.035-8.662,3.155-8.458,3.075-17.039,6.434-25.355,6.86-5.749.363-11.489-.455-17.513-1.4-5.251-.774-10.787-1.672-16.127-1.469-25.6.824-45.427,4.342-64.021,11.621-11.033,4.319-22.263,7.536-33.208,10.877-10.82,3.057-21.766,6.4-32.6,10.637-38.822,15.2-66.623,39.284-96.034,83.336-22,32.9-35.483,61.049-42.484,88.312-3.016,11.556-3.706,22.436-4.563,34.09-.142,2.649-.407,5.583-.548,8.232-.54,7.049-1.9,14.418-3.129,21.5-1.782,9.894-3.813,20.356-3.561,30.632.5,21.735,12.039,48.813,22.5,67.118,10.224,17.691,23.4,33.284,36.125,48.344C350.645,756.517,366.93,775.845,377.6,799.492ZM278.132,622.439c-.172-10.071,1.655-20.454,3.437-30.348,1.233-7.084,2.589-14.454,3.333-21.583.266-2.933.407-5.582.468-8.436.733-11.369,1.627-22.33,4.52-33.6,7.08-27.059,20.442-54.926,42.234-87.743,29.083-43.688,56.476-67.615,94.889-82.652,10.829-4.239,21.854-7.376,32.391-10.557,10.82-3.057,22.254-6.354,33.492-10.753,18.389-7.2,37.935-10.841,63.328-11.584a85.985,85.985,0,0,1,15.842,1.344c6.025.943,12.049,1.886,18,1.442,8.725-.586,17.511-4.025,25.968-7.1,2.86-1.12,5.721-2.24,8.457-3.075,2.044-.8,4.167-1.395,6.414-2.275,19.323-6.62,39.258-13.481,58.734-13.088,40.054.592,64.245,19.653,92.41,41.64,7.092,5.476,14.344,11.362,22.129,16.8,8.878,6.428,18.209,12.207,27.176,17.658,25.479,15.728,49.74,30.753,64.046,58.872,17.16,33.6,11,62.423,4.511,92.788-2.448,11.8-5.02,23.9-6.375,36.686-1.258,10.632-3.129,21.5-5.16,31.966-2.669,14.249-5.383,28.988-6.1,43.415-.556,9.414-.091,18.428.09,27.317.547,14.641,1.059,28.589-1.815,42.918-6.723,33.992-24.573,57.014-43.614,81.209-7.034,9.12-14.476,18.4-21.314,28.622-24.421,35.732-49.642,69.42-90.337,90.066q-6.072,3.093-12.428,5.572c-43.726,17.116-87.762,9.36-117.033-.4-2.968-.96-6.22-2.045-9.188-3.005-18.66-6.136-36.264-11.978-55.758-15.43-11.64-2.046-23.493-2.829-35.062-3.488-13.034-.793-26.273-1.505-39.13-4.254-42.234-9.169-55.573-41.439-70-75.878-2.526-5.85-4.847-11.779-7.576-17.549-10.831-24.056-27.4-43.508-43.239-62.3-12.648-14.855-25.741-30.244-35.965-47.935-9.86-17.362-21.242-44.032-21.783-65.278Z" fill="#121212"/>
    <path id="Path_93" data-name="Path 93" d="M384.966,852.02c.311,2,.747,3.716,1.059,5.716,4.45,21.6,7.477,37.159,32.34,47.7,20.679,8.883,44.064,9.632,68.311,9.573,33.985.137,63.833,8.967,95.511,18.26,8.051,2.508,16.51,4.856,24.969,7.2,25.583,6.964,45.636,6.424,67.909,3.128,7.383-1,15.495-1.349,24.095-1.651,15.611-.451,31.63-1.063,44.707-6.182l.613-.24c17.9-7.243,34.19-22.815,49.775-48.015,12.573-20.249,25.379-38.7,41.835-60.47C850.2,808.318,864.97,788.86,877.3,768c3.259-5.52,6.8-10.915,10.39-16.8,11.828-18.542,24.109-37.732,27.646-59.4,3.964-24.187.472-48.758-2.7-72.511l-.231-1.795c-3.608-25.469,3.519-47.594,11.571-67.959,1.243-2.844,2.405-5.893,3.568-8.942,8.789-20.889,18.536-44.747,9.732-67.238C930.957,457.2,918.646,440.8,907.748,426.2c-3.512-4.756-6.863-9.1-10.01-13.531-5.849-8.321-12.869-12.411-20.05-16.91A91.48,91.48,0,0,1,867.264,389c-4.622-3.378-8.382-7.566-12.141-11.753-4.409-4.641-8.9-9.486-14.452-13.442a118.278,118.278,0,0,0-15.792-8.438c-4.345-2.072-8.975-4.268-12.992-6.7a119.22,119.22,0,0,1-14.024-10.544,125.946,125.946,0,0,0-10.78-8.278,235.729,235.729,0,0,1-23.09-19.257c-8.381-7.565-16.923-15.54-26.538-21.444-23.124-14.528-46.809-7.614-67.553-1.616-2.328.675-4.86,1.43-7.925,2.63-4.086,1.6-8.5,3.564-13.121,5.608s-9.443,4.168-14.347,6.088c-12.668,4.958-21.481,6.522-28.767,5.366-5.252-.774-9.224-3.7-13.4-6.544-3.813-2.517-7.705-5.237-12.5-6.66-7.4-2.054-13.567-.348-19.288,1.891a45.838,45.838,0,0,0-5.028,2.2,83.9,83.9,0,0,1-9.808,3.839c-18.621,5.4-39.251,6.877-62.948,4.127-13.275-1.406-23.714-.385-33.113,3.294-8.786,3.44-17.1,9.288-26.95,19.039-10.916,10.639-22.9,16.745-35.577,22.886-6.5,3.253-13.209,6.585-20.085,10.692-16.042,9.581-28.519,27.669-39.69,45.482-16.2,25.44-29.941,55.343-41.018,88.445-2.707,8.134-6.231,16.587-9.347,24.881-6.1,15.12-12.241,30.729-15.283,45.832-4.106,21.414-5.2,43.3-2.973,62.234,2.5,20.242,11.264,43.222,24,62.522,7.094,10.9,15.751,19.772,24.044,28.316,4.773,4.969,9.91,10.268,14.639,15.727,24,28.8,53.547,68.169,63.551,116.6Zm-100.839-161.9c-12.455-19.176-21.179-41.463-23.6-61.5-2.272-18.445-1.178-40.331,2.8-61.461,2.838-15.022,9.061-30.427,15.159-45.547,3.32-8.374,6.64-16.747,9.552-24.961,11.076-33.1,24.775-62.516,40.973-87.956,11.046-17.529,23.2-35.253,38.829-44.674,6.875-4.106,13.378-7.359,19.88-10.611,12.8-6.426,25.069-12.407,36.11-23.331,9.725-9.466,17.631-15.155,26.212-18.514,8.991-3.519,19.226-4.46,32.012-3.1,23.9,2.67,44.816,1.321,63.641-4.162a87.558,87.558,0,0,0,10.012-3.919c1.635-.64,3.394-1.564,5.028-2.2,5.313-2.08,11.07-3.626,17.9-1.82,4.514,1.3,8.122,3.894,11.855,6.206,4.257,3.049,8.718,6.019,14.458,6.837,7.775,1.2,17.076-.318,30.153-5.437,4.9-1.919,9.728-4.043,14.347-6.087s8.831-3.929,12.917-5.528c2.861-1.12,5.313-2.08,7.64-2.755,20.336-5.838,43.612-12.592,65.8,1.358,9.331,5.779,18.076,13.674,26.253,21.32,7.368,6.783,15.021,13.691,23.375,19.381a126.152,126.152,0,0,1,10.78,8.278,123.447,123.447,0,0,0,14.309,10.669c4.3,2.56,8.931,4.756,13.276,6.828a111.372,111.372,0,0,1,15.507,8.313c5.475,3.752,9.963,8.6,14.087,13.114a90.7,90.7,0,0,0,12.426,11.877,95.779,95.779,0,0,0,10.709,6.891c7.1,4.294,13.916,8.464,19.606,16.376,3.066,4.223,6.5,8.775,10.009,13.531,10.818,14.393,23.129,30.8,29.292,46.539,8.564,21.878-1.219,45.043-9.883,65.648-1.163,3.049-2.61,5.973-3.773,9.022-8.176,20.649-15.143,43.183-11.66,68.936l.232,1.8c3.3,23.468,6.583,48.119,2.664,71.818-3.493,21.174-15.57,40.285-27.274,58.542-3.463,5.6-7.13,11.28-10.389,16.8-12.334,20.862-26.9,40.239-41.09,58.763-16.332,21.484-29.262,40.222-41.835,60.47C777.1,910.5,761.216,925.915,743.724,933l-.613.24c-12.872,5.038-28.687,5.57-44.014,6.146-8.6.3-17,.523-24.584,1.606-21.865,3.136-41.633,3.8-67.011-3.243-8.46-2.347-16.919-4.7-24.969-7.2-31.759-9.5-61.811-18.248-96.284-18.429-23.839-.1-47.02-.93-67.334-9.484-23.726-10.048-26.557-24.5-31.007-46.1-.436-1.715-.747-3.716-1.059-5.716-10.164-48.839-39.791-88.409-64.36-117.463-4.808-5.663-9.866-10.757-14.719-15.931-8.621-8.179-16.629-16.6-23.643-27.293Z" fill="#121212"/>
    <path id="Path_94" data-name="Path 94" d="M389.768,790.248c2.446,5.645,4.891,11.29,7.256,16.731,13.659,33.088,26.8,64.255,67.978,73.131,12.369,2.7,25.119,3.372,37.381,4,10.875.694,22.159,1.229,33.026,3.106,18.233,3.238,34.983,8.707,52.587,14.549,2.967.96,5.935,1.921,8.7,2.961,28.133,9.266,70.419,16.764,112.51.288q6.13-2.4,12.02-5.412c39.06-20.006,63.251-52.112,86.437-86.183,6.59-9.653,13.5-18.488,20.08-26.959,18.259-23.182,35.328-45.19,41.838-77.92,2.749-14.045,2.274-27.3,1.762-41.247-.225-8.4-.53-17.005-.142-25.645.83-13.53,3.376-27.495,5.672-40.891,1.987-9.974,3.813-20.356,5.027-30.5,1.391-12.1,3.714-23.619,5.994-34.65,6.2-29.308,12.063-57.069-4.412-89.526-13.986-27.3-37.029-41.624-61.575-56.775-8.4-5.2-17.365-10.651-25.675-16.83-7.5-5.317-14.308-10.669-21.116-16.021-27.071-21-50.249-39.279-88.917-39.941-18.987-.349-38.1,6.192-56.61,12.492-2.043.8-3.962,1.315-6.006,2.115-2.736.835-5.392,1.875-8.253,2.995-7.844,2.835-16.017,6.034-24.049,6.584-5.464.489-10.795-.49-16.535-1.308a80.783,80.783,0,0,0-15.354-1.3c-24.211.753-43.144,4.156-60.716,11.034-10.625,4.159-21.241,7.136-31.573,10.237-10.128,3.022-20.745,6-30.961,10-36.778,14.4-63.185,37.23-91.114,79.052-20.762,31.235-33.626,57.964-40.414,83.965-2.848,10.782-3.493,21.174-4.307,32.339-.141,2.649-.282,5.3-.628,8.027a178.559,178.559,0,0,1-3.12,20.321c-1.738,9.405-3.521,19.3-3.224,29.086.505,20.552,11.362,46.484,21.426,63.766,9.7,16.953,22.268,31.6,34.392,45.722,15.031,17.931,30.631,36.112,40.616,58.612ZM295.7,622.166c-.216-9.583,1.646-19.272,3.384-28.677,1.189-6.6,2.421-13.681,3.041-20.525.141-2.649.282-5.3.628-8.028.689-10.88,1.334-21.272,4.262-31.85,6.663-25.716,19.4-52.161,40.042-83.111,27.6-41.457,53.6-64.132,89.968-78.368,10.216-4,20.628-6.9,30.756-9.918,10.332-3.1,20.948-6.078,31.573-10.237,17.572-6.878,36.1-10.121,60.023-11a76.726,76.726,0,0,1,14.945,1.459c5.536.9,11.276,1.717,17.024,1.353,8.236-.63,16.694-3.7,24.662-6.824,2.657-1.04,5.313-2.079,8.049-2.915,2.043-.8,3.962-1.315,6.006-2.115,18.3-6.22,37.214-12.681,55.713-12.377,37.974.7,60.993,18.568,87.779,39.444,6.728,5.147,13.616,10.7,21.116,16.021,8.514,6.1,17.277,11.629,25.879,16.75,24.262,15.026,47.225,29.145,60.766,55.912,16.236,31.844,10.417,59.116,4.341,88.139-2.28,11.032-4.808,22.632-6.118,34.935-1.01,10.063-3.121,20.321-4.823,30.419-2.5,13.476-5.046,27.441-5.8,41.175a235.544,235.544,0,0,0,.222,25.85c.511,13.948.907,27-1.718,40.758-6.466,32.241-23.411,53.965-41.466,77.067-6.785,8.551-13.694,17.386-20.283,27.039-23.062,33.786-47.049,65.812-85.576,85.373a124.641,124.641,0,0,1-11.816,5.333c-41.478,16.236-83.275,8.782-111.124-.359-2.968-.961-5.936-1.921-8.7-2.961-17.6-5.843-34.433-11.516-52.871-14.674-11.151-2-22.435-2.536-33.311-3.23-12.261-.624-25.011-1.292-37.176-4.076-40.118-8.582-52.9-39.421-66.316-71.9-2.365-5.44-4.606-11.165-7.256-16.73-10.146-22.909-25.825-41.294-41.06-59.146-11.92-14.2-24.408-28.644-34.028-45.393-9.495-17.033-20.4-42.476-20.742-62.619Z" fill="#121212"/>
    <path id="Path_95" data-name="Path 95" d="M336.048,882.959c.392,2.2.783,4.409,1.1,6.409,4.549,24.864,7.967,42.626,36.528,54.789,24.01,10.173,51.225,11.073,79.586,11.29,39.894.182,74.54,10.435,111.505,21.2,9.312,2.721,19.193,5.691,28.914,8.252,29.812,8.137,53.126,7.5,79.273,3.867,8.689-1.279,18.267-1.492,28.254-1.864,18.382-.593,37.458-1.222,52.987-7.3,21.045-8.238,40.408-26.193,59.154-54.752,15.2-23.164,30.638-44.533,50.211-69.172,17.025-21.52,34.5-43.688,49.386-67.67,3.916-6.249,8.036-12.577,12.565-19.066,14.333-21.173,29.039-43.2,33.659-68.116,5.17-27.725,1.7-55.843-1.727-83.267l-.311-2c-3.662-29.22,5.16-54.839,14.943-78l4.475-10.24c10.644-23.974,22.78-51.361,12.9-77.2-7-18.482-21.044-37.507-33.435-54.114-4.036-5.494-7.912-10.579-11.3-15.62-6.818-9.592-14.567-14.34-23.17-19.461a125.557,125.557,0,0,1-12.086-8,97.162,97.162,0,0,1-13.963-13.4c-4.933-5.379-10.151-10.882-16.638-15.416-5.759-3.876-12.095-6.82-18.227-9.843a122.255,122.255,0,0,1-15.062-7.779,158.572,158.572,0,0,1-16.255-12.03c-3.849-3.209-7.981-6.543-12.522-9.717-9.368-6.473-18.113-14.367-26.574-22.138-9.555-8.757-19.474-17.843-30.591-24.573-26.7-16.431-54.3-8.691-78.961-1.867-3.145.995-6.7,2.151-10.785,3.75-4.495,1.76-8.91,3.724-13.734,5.848s-9.852,4.328-14.96,6.327c-10.829,4.24-24.555,8.905-35.911,6.984-6.1-1.148-10.85-4.242-15.675-7.54-4.257-3.05-8.719-6.019-14.494-7.531-8.744-2.472-16.34-.207-23.287,2.513l-5.108,2-5.313,2.08a63.716,63.716,0,0,1-6.414,2.275c-21.846,6.193-46.021,7.64-73.628,4.534-15.513-1.708-28.032-.581-39.27,3.818-10.012,3.92-19.676,10.532-31.2,21.412-12.843,12.337-27.155,19.118-42,26.343-7.728,3.733-15.457,7.466-23.763,12.132-19.027,10.985-33.8,31.624-47.276,51.989-19.279,29-36.068,63.164-49.871,101.342-3.408,9.351-7.634,19.023-11.451,28.534-7.378,17.271-14.923,35.316-18.756,52.614-5.473,24.543-7.161,49.727-4.87,71.23,2.523,23.3,12.279,49.427,26.627,71.634,8.143,12.375,17.849,22.724,27.315,32.458,5.581,5.833,11.448,11.789,16.781,18.19,28.124,33.321,61.787,78.385,72.433,133.874Zm-70.63-135.287c-5.413-6.606-11.2-12.358-16.781-18.19-9.911-10.268-19.3-19.8-27.235-32.254-14.268-22-23.864-47.72-26.307-70.815-2.211-21.3-.727-46.4,4.622-70.662,3.832-17.3,11.254-35.058,18.631-52.33,4.022-9.591,8.247-19.262,11.656-28.613,13.678-37.894,30.343-71.77,49.747-101.059,13.347-20.079,27.919-40.639,46.619-51.26,8.1-4.586,16.034-8.4,23.558-12.051,15.049-7.3,29.564-14.167,42.612-26.584,11.324-10.8,20.58-17.252,30.388-21.091,10.829-4.239,23.063-5.491,38.373-3.7,27.891,3.229,52.27,1.7,74.525-4.65,2.123-.6,4.166-1.4,6.618-2.355l5.313-2.08,5.108-2c7.56-2.96,14.01-4.541,21.9-2.443,5.288,1.468,9.544,4.517,13.721,7.362,4.906,3.5,10.016,6.926,16.529,7.914,11.844,1.966,26.059-2.655,37.092-6.974,5.109-2,10.137-4.2,14.96-6.328s9.239-4.088,13.53-5.768c4.087-1.6,7.64-2.755,10.581-3.67,23.969-6.789,51.367-14.448,77.006,1.689,10.913,6.81,20.752,15.692,30.307,24.449,8.461,7.77,17.206,15.665,26.858,22.262,4.257,3.05,8.389,6.384,12.442,9.513,5.146,4.116,10.452,8.642,16.539,12.154a160.481,160.481,0,0,0,15.347,7.9c6.052,2.819,12.388,5.762,17.942,9.718,6.408,4.33,11.421,9.913,16.274,15.087,4.409,4.641,8.693,9.566,14.327,13.727a126.459,126.459,0,0,0,12.291,7.922c8.318,5,16.068,9.744,22.441,18.8,3.592,4.961,7.263,10.126,11.3,15.62,12.391,16.607,26.356,35.428,33.2,53.5,9.56,25.025-2.327,51.843-12.848,75.532-1.491,3.414-3.187,6.907-4.474,10.24-9.907,23.45-18.65,49.272-14.952,79.186l.312,2c3.27,27.015,6.736,55.133,1.69,82.574-4.576,24.427-19.157,46.169-33.286,67.262-4.12,6.329-8.649,12.818-12.485,19.271-14.678,23.9-32.36,46.15-49.261,67.385-19.7,24.924-35.132,46.292-50.335,69.456-18.418,28.2-37.452,45.786-58.009,54.068l.4,1.023-.4-1.023c-15.12,5.919-33.991,6.468-52.294,7.266-10.271.248-19.769.665-28.538,1.739-25.738,3.473-48.972,4.315-78.295-3.778-9.8-2.765-19.6-5.531-28.915-8.252-36.965-10.76-71.895-21.138-111.993-21.24-28.077-.092-55.087-1.073-78.529-11-27.628-11.586-30.566-28.121-35.4-53.109-.392-2.205-.7-4.205-1.1-6.41-11.3-55.942-45.118-101.415-73.322-134.94Z" fill="#121212"/>
    <path id="Path_96" data-name="Path 96" d="M362.463,858.942c.311,2,.827,3.921,1.139,5.921,4.077,22.455,7.139,38.705,33.141,49.749,21.736,9.176,46.383,10.139,71.891,10.293,35.94.315,67.538,9.4,100.843,19.238,8.539,2.553,17.283,5.025,26.311,7.621,26.924,7.382,48.158,6.851,71.614,3.564,7.791-1.163,16.472-1.26,25.765-1.6,16.713-.647,33.994-1.045,48.092-6.564,19-7.438,36.642-23.775,53.372-49.659,13.72-20.933,27.592-40.275,45.4-62.808,15.257-19.413,31.172-39.554,44.776-61.385,3.463-5.6,7.335-11.36,11.331-17.4,12.974-19.227,26.117-39.226,30.312-61.618,4.54-25.121,1.545-50.83-1.457-75.356l-.232-1.8c-3.315-26.526,4.594-49.664,13.382-70.554q1.837-4.784,4.1-9.386c9.65-21.7,20.463-46.445,11.668-70.119-6.279-16.641-19.2-33.986-30.333-49.2-3.591-4.961-7.023-9.512-10.25-14.144-6.009-8.73-13.314-12.945-21.063-17.692a103.8,103.8,0,0,1-11.073-7.22,92.754,92.754,0,0,1-12.506-12.082c-4.488-4.845-9.057-9.895-15.18-14.1a95.642,95.642,0,0,0-16.645-8.811,128.079,128.079,0,0,1-13.641-7.158,130.15,130.15,0,0,1-14.673-11,122.561,122.561,0,0,0-11.429-8.73c-8.638-5.815-16.45-13.132-24.1-20.04-8.745-7.894-17.651-16.2-27.631-22.431-24.261-15.026-49.332-8.041-71.382-1.768-2.737.836-6.086,1.911-9.764,3.351-3.882,1.519-8.093,3.4-12.384,5.083-4.415,1.964-8.91,3.724-13.609,5.563-9.808,3.839-22.1,7.945-32.482,6.113-5.535-.9-9.712-3.744-14.253-6.918-3.893-2.721-8.07-5.566-13.073-6.909-7.97-2.3-14.953-.277-21.083,2.123l-4.7,1.839-4.7,1.84a51.39,51.39,0,0,1-5.8,2.035c-19.723,5.6-41.615,6.858-66.7,4.18-14.048-1.575-25.384-.439-35.6,3.56-9.194,3.6-17.917,9.608-28.176,19.518-11.653,11.164-24.534,17.385-38.028,23.846-6.911,3.413-14.107,6.7-21.391,10.968-17.269,10.06-30.483,28.673-42.8,47.171-17.511,26.9-32.525,57.769-44.916,92.329-3.036,8.5-6.889,17.316-10.413,25.769-6.552,15.77-13.636,31.983-16.927,47.655-4.763,22.143-6.354,45.166-4.171,64.59,2.416,21.219,11.211,44.892,24.27,65.011,7.255,11.308,16.276,20.509,24.933,29.382,5.137,5.3,10.275,10.6,15.164,16.465,25.048,30.28,55.52,71.406,65.063,121.667ZM298.59,736.1c-4.889-5.867-10.106-11.37-15.244-16.669-9.021-9.2-17.474-18.154-24.648-29.258-12.979-19.913-21.615-43.178-23.87-63.988-2.1-19.219-.637-41.958,4.207-63.9,3.371-15.467,10.251-31.6,16.8-47.37,3.729-8.533,7.3-17.475,10.537-26.053,12.267-34.277,27.281-65.148,44.828-91.352,11.988-18.133,25.2-36.746,41.939-46.362,7.284-4.266,14.479-7.555,21.186-10.888,13.7-6.541,26.58-12.762,38.641-24.086,10.135-9.626,18.653-15.554,27.644-19.073,9.807-3.839,20.735-4.816,34.5-3.365,25.367,2.8,47.463,1.463,67.47-4.011a57.407,57.407,0,0,0,6.006-2.115l4.7-1.84,4.5-1.759c6.742-2.64,12.784-4.061,19.7-2.052,4.718,1.219,8.611,3.939,12.5,6.66,4.462,2.97,9.083,6.348,15.107,7.291,10.867,1.877,23.571-2.389,33.583-6.308,4.495-1.759,9.115-3.8,13.53-5.768,4.211-1.884,8.5-3.563,12.384-5.083,3.678-1.44,6.823-2.435,9.559-3.27,21.641-6.114,46.3-12.938,69.632,1.51,9.9,6.028,18.8,14.332,27.266,22.1,7.653,6.908,15.465,14.225,24.184,20.244,3.892,2.72,7.66,5.725,11.144,8.606a110.81,110.81,0,0,0,14.958,11.122,105.456,105.456,0,0,0,13.845,7.078,123.254,123.254,0,0,1,16.36,8.686c5.759,3.877,10.328,8.927,14.816,13.772,4.044,4.312,7.884,8.7,12.87,12.411a103.894,103.894,0,0,0,11.073,7.219c7.385,4.419,14.486,8.713,20.335,17.035,3.147,4.427,6.658,9.183,10.249,14.144,11.059,15.006,23.9,32.146,30.093,48.584,8.6,22.571-2.089,47.033-11.615,68.447l-4.1,9.387c-9.037,21.458-16.865,44.8-13.595,71.816l.232,1.795c3,24.526,6.121,49.951,1.5,74.867-4.07,22.108-17.293,41.9-30.063,61.049-3.871,5.76-7.743,11.52-11.331,17.4-13.4,21.751-29.11,41.813-44.652,61.1-17.806,22.533-31.677,41.875-45.4,62.808-16.606,25.6-33.713,41.492-52.511,48.85l.4,1.022-.4-1.022c-13.69,5.359-30.686,5.882-47.194,6.449-9.294.336-17.894.638-25.97,1.677-23.251,3.206-44.2,3.862-70.841-3.4-8.948-2.392-17.772-5.069-26.311-7.621-33.509-9.755-64.983-19.128-101.331-19.283-25.3-.234-49.872-.992-71.119-10.124-24.864-10.546-27.65-25.489-32.012-48.069-.311-2-.827-3.92-1.139-5.92-8.637-51.56-39.189-92.89-64.93-123.135Z" fill="#121212"/>
    <path id="Path_97" data-name="Path 97" d="M348.891,870.622c.391,2.2.7,4.2,1.219,6.125,4.273,23.557,7.451,40.705,35,52.086,22.873,9.675,48.906,10.566,75.8,10.649,38.019.209,71.039,9.92,106.093,20.013,9.028,2.6,18.341,5.318,27.573,7.835,28.47,7.719,50.807,6.992,75.648,3.635,8.28-1.119,17.369-1.376,27.071-1.873,17.486-.478,35.789-1.276,50.5-7.035,20.024-7.838,38.525-24.983,56.365-52.245,14.422-22.151,29.155-42.3,47.947-65.928,16.243-20.506,33.02-41.456,47.121-64.425q5.835-9.17,11.988-18.133c13.551-20.16,27.68-41.253,32.087-64.907,4.958-26.463,1.767-53.274-1.511-79.107l-.232-1.8c-3.306-27.708,4.815-52.109,14.3-74.216l4.226-9.671c10.147-22.836,21.662-48.8,12.466-73.5-6.6-17.46-20.039-35.542-31.906-51.411q-5.577-7.3-10.774-14.882c-6.374-9.059-14.043-13.6-22.077-18.475-3.732-2.311-7.669-4.543-11.642-7.468-4.985-3.708-9.19-8.428-13.234-12.74-4.853-5.174-9.5-10.428-15.909-14.758a105.331,105.331,0,0,0-17.5-9.185c-4.914-2.321-9.828-4.641-14.414-7.326a144,144,0,0,1-15.526-11.372c-3.768-3.005-7.616-6.214-11.873-9.264-9-6.143-17.384-13.709-25.2-21.026-9.19-8.428-18.664-16.981-29.213-23.462-25.478-15.728-51.775-8.264-75.132-1.715-2.94.915-6.289,1.99-10.376,3.59-4.291,1.679-8.5,3.564-13.2,5.4-4.619,2.044-9.443,4.168-14.143,6.008-10.216,4-23.329,8.424-34.2,6.548-5.82-1.023-10.281-3.993-15.107-7.291-4.176-2.846-8.353-5.691-13.64-7.158-8.46-2.348-15.647-.242-22.185,2.318l-4.9,1.919-4.9,1.92a55.47,55.47,0,0,1-6.005,2.115c-21.029,5.874-43.818,7.249-70.163,4.357-14.821-1.744-26.851-.572-37.476,3.587-9.6,3.759-18.859,10.212-29.935,20.442-12.39,11.689-25.884,18.15-40.115,25.135-7.32,3.573-14.845,7.226-22.537,11.652-18.086,10.381-32.206,30.291-45.181,49.518-18.577,27.786-34.541,60.444-47.758,96.507-3.16,8.782-7.261,18.169-11.034,27.191-7,16.418-14.382,33.689-18.045,50.214-5.261,23.281-6.86,47.487-4.561,67.808,2.327,22.2,11.6,47.1,25.346,68.363,7.7,11.841,17.165,21.576,26.266,30.982,5.218,5.5,10.719,11.131,15.973,17.327,26.63,31.312,58.516,74.242,68.61,127.118ZM282,741.887c-5.253-6.2-10.755-11.824-15.973-17.328-9.466-9.734-18.283-19.016-25.9-30.653-13.584-20.856-22.7-45.347-24.946-67.34-2.22-20.117-.54-44.118,4.6-67.115,3.54-16.24,10.793-33.227,17.8-49.645,3.773-9.022,7.874-18.409,11.034-27.191,13.013-35.983,29.057-68.437,47.43-96.143,12.769-19.146,26.561-38.693,44.238-48.914,7.693-4.426,15.217-8.078,22.333-11.571,14.516-6.861,28.134-13.607,40.729-25.375,10.871-10.15,19.718-16.443,29.117-20.122,10.421-4.079,21.962-5.3,36.5-3.676,26.63,3.016,49.828,1.481,71.061-4.473a61.467,61.467,0,0,0,6.209-2.2l5.108-2,4.9-1.92c7.152-2.8,13.4-4.3,20.8-2.247,5,1.343,9.18,4.188,13.072,6.909,4.746,3.094,9.652,6.6,15.96,7.664,11.356,1.922,24.877-2.664,35.5-6.823,4.7-1.84,9.524-3.964,14.347-6.088,4.62-2.044,8.911-3.723,13-5.323,3.882-1.52,7.232-2.6,10.172-3.51,22.948-6.389,48.836-13.693,73.381,1.457,10.265,6.357,19.739,14.91,28.849,23.133,8.1,7.442,16.478,15.007,25.481,21.151,4.177,2.845,8.025,6.055,11.793,9.06A146.588,146.588,0,0,0,834.2,323.185a145.991,145.991,0,0,0,14.7,7.451,136,136,0,0,1,17.213,9.06c6.123,4.206,10.976,9.38,15.545,14.43,4.124,4.516,8.328,9.237,13.6,13.069,3.972,2.925,7.989,5.361,11.722,7.672,7.953,4.668,15.338,9.087,21.347,17.817,3.307,4.836,7.023,9.513,10.774,14.882,11.867,15.869,25.023,33.827,31.746,51,9.08,23.8-2.39,49.274-12.413,71.825-1.492,3.414-2.859,6.543-4.43,9.751-9.615,22.392-17.86,47.077-14.518,75.479l.231,1.8c3.075,25.912,6.39,52.439,1.557,78.618C936.9,719.2,922.9,740.01,909.554,760.09c-4,6.045-8.2,12.169-11.908,18.338-14.181,22.764-30.878,43.919-46.917,64.345-18.792,23.626-33.445,43.981-48.07,66.212-17.512,26.9-35.685,43.678-55.3,51.357l.4,1.022-.4-1.022c-14.507,5.678-32.4,6.317-49.887,6.795-9.782.292-18.871.549-27.356,1.748-24.556,3.482-46.689,4.128-74.67-3.546-9.437-2.437-18.749-5.158-27.573-7.835-35.135-10.3-68.643-20.053-106.866-20.182-26.691-.163-52.439-.93-75.028-10.48-26.286-11.168-29.312-26.724-33.666-50.486a50.907,50.907,0,0,0-1.219-6.125c-10.05-53.365-42.3-96.624-69.09-128.344Z" fill="#121212"/>
    <path id="Path_130" data-name="Path 130" d="M122.617,624.535a5.39,5.39,0,0,1-1.854-.639c-1.369-.65-2.934-1.392-4.665-.776a5.418,5.418,0,0,0-3.235,2.777,7.919,7.919,0,0,0,1.038,7.917c1.4,2.1,3.171,3.42,5.014,3.576a8.408,8.408,0,0,0,5.768-2.054,17.922,17.922,0,0,0,4.532-5.515c1.021-2.15.506-3.592-.287-4.447-.9-1.143-2.636-1.011-4.377-.879A2.671,2.671,0,0,1,122.617,624.535Zm4.839,4.452a16.991,16.991,0,0,1-4.162,4.732,5.017,5.017,0,0,1-4.13,1.633c-1.36-.166-2.348-1.113-3.542-2.638-1.1-1.72-1.543-4.324-.8-5.888a3.471,3.471,0,0,1,2-1.686c1.154-.411,2.132.052,3.306.609a7.392,7.392,0,0,0,2.049.733,13.27,13.27,0,0,0,2.812.136c.772-.112,2.225-.143,2.523.239A1.954,1.954,0,0,1,127.457,628.987Z" transform="translate(254.419 1142.042) rotate(-135)" fill="#121212"/>
  </g>
</svg>
