<?xml version="1.0" encoding="UTF-8"?> <svg xmlns="http://www.w3.org/2000/svg" viewBox="0 0 34 34" role="img" aria-label="Logo de Hôtels Le Germain" class="css-3yg76v"><path fill="#fff" fill-rule="evenodd" d="M23.377 29.346c3.187 0 4.895 1.031 4.895 3.6 0 .379-.106.73-.302 1.054H10.31a2.919 2.919 0 01-.243-1.2c0-2.173 2.941-3.454 5.829-3.454h7.48zm-11.76-.424c-2.48.065-5.162 1.171-5.162 4.272 0 .28.026.547.072.806H0V.006h33.996H0V0h34v5.314h-.004c-.655-.278-1.41-.423-2.233-.423-2.053 0-3.77 1.255-4.994 2.75-2.263-1.738-5.05-2.75-7.927-2.75-5.201 0-10.648 2.358-10.648 8.377 0 2.686.98 5.378 3.488 6.8-2.267.494-4.32 2.404-4.32 4.802 0 2.39 2.006 3.95 4.255 3.95v.102zM33.58 12.36c.144 0 .283-.008.417-.021L34 34h-2.497c.255-.65.387-1.361.387-2.14 0-4.03-2.786-6.133-10.079-6.133h-8.053c-1.47 0-2.777-.58-2.777-1.983 0-1.254 1.218-2.41 2.537-2.41.828 0 1.464.916 5.424.916 6.4 0 10.378-3.99 10.378-7.87 0-2.067-.592-3.787-1.374-5.267.782-.982 2.305-1.957 3.624-1.957.884 0 1.71.148 2.106.778-1.366 0-2.348.643-2.348 2.068 0 1.324.83 2.358 2.252 2.358zm-20.714 1.233c0-3.783 1.746-6.437 5.896-6.437 4.134 0 5.893 2.654 5.893 6.437 0 3.79-1.759 6.396-5.893 6.396-4.15 0-5.896-2.605-5.896-6.396z"></path></svg> 