<?xml version="1.0" encoding="UTF-8"?> <svg xmlns="http://www.w3.org/2000/svg" width="308" height="201" viewBox="0 0 308 201"><g id="hotel71" transform="translate(-423 -164)"><rect id="Rectangle_1" data-name="Rectangle 1" width="308" height="201" transform="translate(423 164)" fill="none"></rect><path id="hotel71-1" d="M80.894,0V21.2h59.2c1.359,0,1.837.544,1.308,1.567-6.4,12.318-47.465,93.2-51.778,101.5h26.54c1.814-3.554,41.183-83.113,41.183-83.113,2.56-5.164,4.291-11.446,4.291-15.623,0-9.371-6.135-19.252-13.972-22.5C142.871.926,137.112,0,128.949,0ZM183.48,0V21.405H200.4c.78,0,1.24.362,1.24,1.061v101.8h24.869V0ZM7.845,171.151A3.189,3.189,0,0,0,6.2,168.4a19,19,0,0,0-1.72-.894,5.353,5.353,0,0,1-2.025-1.26,1.737,1.737,0,0,1-.429-1.127c0-1.05.91-1.782,2.174-1.782a2.143,2.143,0,0,1,2.227,1.677c.1.315.153.367.355.367.353,0,.579-.1.579-.235v-.1c0-.053-.022-.156-.022-.312-.027-.108-.027-.29-.078-.525-.024-.237-.051-.421-.051-.553-.075-.6-.124-.655-.707-.864a6.418,6.418,0,0,0-2.177-.369c-2.277,0-3.844,1.26-3.844,3.124,0,1.284.76,2.229,2.505,3.1l1.591.785a2.473,2.473,0,0,1,1.647,2.1,2.219,2.219,0,0,1-2.454,2.128,3.094,3.094,0,0,1-2.86-2.1c-.1-.266-.127-.266-.355-.266-.352,0-.556.081-.556.235,0,.03.026.08.052.211l.051.29.226,1.18.051.342c.1.368.152.421.708.655a7.053,7.053,0,0,0,2.353.421c2.556,0,4.4-1.444,4.4-3.464m11.813,3.461a5.62,5.62,0,0,1-5.923-5.8,6.283,6.283,0,0,1,6.5-6.43,5.666,5.666,0,0,1,5.973,5.878,6.32,6.32,0,0,1-6.552,6.348m.175-11.308c-2.554,0-4.25,1.916-4.25,4.826,0,3.179,1.9,5.514,4.479,5.514,2.5,0,4.273-1.97,4.273-4.751,0-3.278-1.87-5.589-4.5-5.589m16.951,11.047h-.733c-.456,0-.709-.026-.811-.026H33.747l-.784.026h-.656c-.279,0-.331-.05-.331-.312,0-.24.052-.315.331-.342l.252-.026c.606-.056.808-.132.884-.263a3.822,3.822,0,0,0,.129-1.312v-7.139a5.945,5.945,0,0,0-.076-1.1c-.053-.312-.129-.339-.937-.447-.556-.05-.583-.1-.583-.417,0-.211.078-.289.331-.289h.227l.429.026h3.061l.4-.026h.252c.277,0,.328.078.328.312,0,.263-.076.319-.351.345l-.23.023c-.6.08-.808.135-.909.289a5.5,5.5,0,0,0-.1,1.286V172.1a5.309,5.309,0,0,0,.076,1.232c.05.184.277.263,1.139.342.377.053.4.053.481.1a.637.637,0,0,1,.051.286c0,.264-.049.291-.379.291m18.695,0h-4.7c-.2-.026-.253-.08-.253-.29,0-.263.074-.338.378-.364l.305-.026c.582-.056.709-.132.709-.342a3.24,3.24,0,0,0-.658-1.155l-2-2.781-2.049,2.938a3.023,3.023,0,0,0-.533,1.023.38.38,0,0,0,.053.185,3.047,3.047,0,0,0,.936.158c.3,0,.378.051.378.312,0,.292-.074.342-.378.342h-.027c-.682,0-1.416-.026-2.277-.026-.507,0-.907,0-1.162.026h-.381c-.353,0-.4-.05-.4-.369,0-.234.074-.285.4-.312a6.538,6.538,0,0,0,.659-.079,1.426,1.426,0,0,0,.806-.632l.509-.629,2.884-3.775-2.834-3.94a4.657,4.657,0,0,0-.758-.943,2.021,2.021,0,0,0-1.09-.312c-.254-.025-.326-.082-.326-.263v-.183c.025-.158.1-.21.352-.21h.434l.681.026h2.2l.709-.026H48.4c.355,0,.4.052.4.339,0,.235-.024.292-.379.317l-.3.05c-.6.108-.683.108-.683.319a1,1,0,0,0,.229.47l.428.6,1.67,2.36,1.821-2.622a2.419,2.419,0,0,0,.481-.893c0-.129-.178-.211-.556-.264-.154-.023-.356-.023-.48-.049-.152-.03-.206-.108-.206-.319,0-.26.054-.312.433-.312a1.7,1.7,0,0,1,.3.026c.3,0,.658.025,1.088.025.53,0,1.189-.052,1.721-.052h.4c.4,0,.455.026.455.312,0,.263-.05.319-.352.345a1.692,1.692,0,0,0-1.57.813l-.784.995-2.177,2.778,3.188,4.465.305.419c.354.476.429.551.6.656a2.556,2.556,0,0,0,.784.185l.278.026c.305.026.355.078.355.342s-.074.313-.379.313m18.064,0h-.785l-1.417-.025c-.229,0-.657.025-1.266.025h-.833c-.252,0-.326-.049-.326-.341,0-.261.05-.286.555-.339.682-.079.836-.132.836-.316a3.19,3.19,0,0,0-.252-.785l-1.038-2.495h-4.2l-.962,2.521-.05.209-.077.234a.516.516,0,0,1-.023.158v.107c0,.234.228.261.987.366l.175.026c.254.026.33.078.33.312,0,.315-.05.341-.456.341H61.351c-.355,0-.454,0-.506-.049-.052-.029-.077-.135-.077-.292,0-.211.052-.286.254-.286.862-.108.987-.185,1.29-.868l.176-.4,4.124-9.522.129-.315c.048-.157.125-.184.43-.184.125,0,.2.026.253.026a.2.2,0,0,1,.1.052c.048.027.074.08.125.159a1.606,1.606,0,0,1,.1.262l4.172,9.5a7.807,7.807,0,0,0,.408.842c.125.237.3.339.731.369l.3.025a.72.72,0,0,0,.206.026c.227.026.277.078.277.341,0,.236-.079.315-.307.315m-6.705-9.443-1.668,4.3h3.465Zm25.323-1.525-.253.026-.351.054c-.484.082-.56.157-.609.473a7,7,0,0,0-.1,1.1l-.076,9.026c0,.473-.025.526-.357.526a.814.814,0,0,1-.226-.027h-.151a.485.485,0,0,1-.152-.076,1.494,1.494,0,0,0-.2-.266l-7.236-9.156-.125,6.585v.865c0,.658.051.868.2.947a3.818,3.818,0,0,0,1.367.237c.33.026.378.078.378.365,0,.239-.127.289-.532.289h-.074l-.76-.026H81.94c-.781,0-1.67.026-2,.026h-.327c-.155-.026-.229-.132-.229-.342,0-.132.023-.211.1-.26.025-.026.078-.026.383-.08.125-.026.227-.026.326-.055l.355-.05c.252-.025.329-.1.379-.26a5.541,5.541,0,0,0,.152-1.239l.025-.444.3-7.713-.076-.079a2.032,2.032,0,0,0-1.188-.421c-.027-.026-.1-.026-.231-.049-.252-.026-.3-.108-.3-.368,0-.211.125-.289.454-.289h.126l.458.026h1.971l.1-.026,7.035,8.945-.152-6.638a5.9,5.9,0,0,0-.1-1.231c-.052-.212-.382-.29-1.29-.4l-.254-.022c-.253,0-.327-.083-.327-.318s.1-.339.452-.339h.129a3.484,3.484,0,0,0,.654.026h2.456a2.729,2.729,0,0,0,.558-.026h.227l.153.026c.178.026.229.078.229.285,0,.262-.076.345-.33.368m16.522-.157c0,.526-.051,1.18-.051,1.521v.291c-.026.261-.1.314-.482.314-.328,0-.4-.054-.452-.343-.1-.759-.155-.942-.357-1.154-.227-.234-.656-.311-1.846-.311h-1.188v8.815l.024.367c.052.705.127.812.936.889l.5.056.28.026.126.026c.178.025.229.075.229.26,0,.318-.051.368-.381.368h-1.747l-.909-.026-.886.026h-1.52c-.378,0-.428-.026-.428-.342,0-.211.076-.261.33-.286l.254-.053.453-.027c.557-.028.732-.157.811-.367a3.6,3.6,0,0,0,.1-1.181v-8.551h-.074l-.913.023a4.53,4.53,0,0,0-1.745.235,1.887,1.887,0,0,0-.835,1.234c-.076.261-.127.341-.253.341h-.3l-.178-.052c-.151-.028-.2-.05-.2-.186l.024-.132.026-.285.151-1.42.025-.263c.026-.287.127-.365.53-.365h.2l.531.027h1.214c.861,0,2.151.025,3.341.025h1.594l1.265-.025h.835l.4-.027h.178c.33,0,.4.053.4.315v.022l-.022.215Zm15.1,8.66-.1.446-.154.813-.15.761c-.051.261-.077.313-.129.366a.35.35,0,0,1-.276.079H120.9l-1.565-.026H116.2l-.761.026h-.63c-.329,0-.38-.05-.38-.312,0-.24.075-.315.329-.343l.252-.026c.531-.056.812-.131.884-.264a1.048,1.048,0,0,0,.1-.495,1.892,1.892,0,0,1,.026-.342v-7.611a6.915,6.915,0,0,0-.075-1.129c-.027-.263-.125-.341-.533-.4l-.377-.052-.279-.023c-.278-.057-.329-.108-.329-.369,0-.235.051-.289.329-.315l.228.026h.429l.785.026h2.632l1.973-.026h1.616c.434,0,.484.026.508.421l.024.312.153,1.365a2.92,2.92,0,0,1,.024.292c0,.207-.151.287-.557.287-.253,0-.253-.028-.354-.369a1.817,1.817,0,0,0-.834-1.181,2.614,2.614,0,0,0-1.264-.211h-.964c-.506,0-.833-.026-1.013-.026h-.379v4.229h1.113a11.166,11.166,0,0,0,1.9-.109c.228-.075.354-.315.429-.864.051-.368.075-.392.127-.474.051-.053.074-.053.2-.053h.3c.2.026.254.1.254.342V169.6l.026.235c0,.343-.078.419-.381.419h-.2c-.254,0-.278-.05-.329-.524a2.416,2.416,0,0,0-.2-.842c-.1-.157-.254-.209-1.089-.209h-2.151v3.413l.026.473.026.285c0,.451.228.5,1.519.5a10.931,10.931,0,0,0,1.973-.158,1.918,1.918,0,0,0,1.466-1.233l.152-.315c.075-.184.151-.236.327-.236.383,0,.558.1.558.315,0,.053-.023.106-.023.159m25.777,2.176-.024.03a3.334,3.334,0,0,1-1.771.5,4.4,4.4,0,0,1-3.212-1.677,5.04,5.04,0,0,1-3.745,1.677,3.127,3.127,0,0,1-3.389-3.15c0-1.886,1.62-2.938,3.033-3.882q-.2-.3-.376-.6a4.423,4.423,0,0,1-.685-2.15,2.508,2.508,0,0,1,2.657-2.412c1.316,0,2.175.683,2.175,1.785a2.908,2.908,0,0,1-.656,1.732,8.57,8.57,0,0,1-1.568,1.47c.4.6.506.757,1.416,1.966a17.138,17.138,0,0,0,1.617,1.939,7.642,7.642,0,0,0,1.088-2.909.3.3,0,0,0-.1-.262.752.752,0,0,0-.3-.106c-.1-.026-.23-.026-.432-.057-.452-.049-.505-.049-.505-.338,0-.233.053-.29.252-.29h.253a4.554,4.554,0,0,1,.48.026c.307,0,.835.03,1.316.03.332,0,.585-.03.76-.03h.683a2.886,2.886,0,0,1,.329-.026h.053c.148,0,.227.057.227.184v.159c0,.184-.052.236-.252.262l-.28.023a7.337,7.337,0,0,0-1.062.163c-.151.077-.255.183-.48.784-.431,1.052-.585,1.39-.858,1.942a6.49,6.49,0,0,1-.66,1c1.239,1.288,2.177,1.864,3.061,1.864a2.022,2.022,0,0,0,.657-.082l.075-.023c.027,0,.027-.026.054-.026.075,0,.124.079.174.211a.284.284,0,0,1,.052.184.1.1,0,0,1-.025.078s-.028,0-.028.023m-8.725-5.85a6.566,6.566,0,0,0-1.191.971,2.727,2.727,0,0,0-.781,1.864,2.513,2.513,0,0,0,2.577,2.467,3.73,3.73,0,0,0,2.582-1.154,18.634,18.634,0,0,1-1.694-2.022c-.684-.892-.912-1.234-1.493-2.126m-.154-3.832a4.843,4.843,0,0,0,.938,2.337,4.625,4.625,0,0,0,1.06-1.049,2.46,2.46,0,0,0,.409-1.263,1.2,1.2,0,1,0-2.407-.025m27.551,10.233a5.618,5.618,0,0,1-5.919-5.8,6.28,6.28,0,0,1,6.5-6.43,5.665,5.665,0,0,1,5.971,5.878,6.32,6.32,0,0,1-6.552,6.348m.177-11.308c-2.555,0-4.248,1.916-4.248,4.826,0,3.179,1.9,5.514,4.476,5.514,2.505,0,4.277-1.97,4.277-4.751,0-3.278-1.874-5.589-4.505-5.589m25.678-.29c0-.207-.052-.259-.227-.286l-.151-.026h-.227a2.758,2.758,0,0,1-.56.026h-2.456a3.484,3.484,0,0,1-.654-.026h-.125c-.357,0-.46.1-.46.339s.079.319.333.319l.252.023c.907.1,1.239.184,1.289.4a5.718,5.718,0,0,1,.1,1.232l.15,6.638-7.032-8.946-.1.026H182.25l-.453-.026h-.129c-.329,0-.457.08-.457.289,0,.261.053.343.306.369.125.023.2.023.227.05a2.012,2.012,0,0,1,1.188.42l.079.078-.306,7.714-.023.444a5.431,5.431,0,0,1-.152,1.239c-.052.155-.128.233-.381.259l-.351.05c-.1.03-.205.03-.333.057-.3.053-.355.053-.379.079-.075.049-.1.127-.1.259,0,.211.08.315.228.343h.332c.325,0,1.213-.027,2-.027h.962l.76.027h.077c.4,0,.531-.049.531-.289,0-.286-.052-.339-.381-.366a3.816,3.816,0,0,1-1.364-.235c-.154-.08-.2-.289-.2-.947v-.866l.125-6.586,7.236,9.157c.128.158.2.236.2.267a.407.407,0,0,0,.152.075h.15a.868.868,0,0,0,.228.026c.329,0,.355-.053.355-.525l.075-9.026a7.5,7.5,0,0,1,.1-1.1c.052-.318.128-.393.608-.475l.355-.052.252-.026c.255-.025.33-.107.33-.37m16.6,8.926-.1.444-.129.706-.123.658c-.1.552-.152.6-.533.6h-.329c-.126,0-.353-.026-.733-.026H207.32c-.81,0-1.439-.023-1.924-.023-.6,0-1.438.023-2.479.023H201.5c-.355,0-.607.026-.76.026h-.28c-.3,0-.381-.026-.381-.184,0-.05.026-.077.1-.186l.125-.184.358-.444L208,163.7h-3.9a4.609,4.609,0,0,0-1.568.132c-.381.1-.707.55-.912,1.206-.1.29-.15.344-.431.344-.354,0-.479-.08-.479-.264v-.1l.026-.285.152-1.392.023-.292c.025-.261.127-.339.381-.339h.657l1.163.026h4.857l1.493-.026.581-.027h.227c.229,0,.332.054.332.155,0,.082-.054.134-.2.345a2.949,2.949,0,0,1-.2.26l-7.538,9.919h2.252c.1,0,.457,0,1.088-.025.609,0,.937-.023,1.039-.023a6.439,6.439,0,0,0,1.035-.083,1.913,1.913,0,0,0,1.644-1.39c.155-.369.2-.421.383-.421a.172.172,0,0,1,.1.026l.181.025c.228.03.326.083.326.237,0,.079-.024.133-.024.241m15.5-.055-.1.446-.154.813-.147.761c-.053.261-.078.313-.129.366s-.124.079-.279.079h-2.071l-1.571-.026H218.6l-.76.026h-.632c-.329,0-.381-.05-.381-.312,0-.24.077-.315.331-.343l.254-.026c.529-.056.809-.131.881-.264a1.059,1.059,0,0,0,.1-.495,2.135,2.135,0,0,1,.023-.342v-7.611a6.592,6.592,0,0,0-.075-1.129c-.026-.263-.125-.341-.533-.4l-.377-.052-.277-.023c-.279-.057-.331-.108-.331-.369,0-.235.052-.289.331-.315l.228.026h.427l.787.026h2.629l1.977-.026h1.617c.431,0,.48.026.507.421l.025.312.152,1.365a2.7,2.7,0,0,1,.026.292c0,.207-.155.287-.56.287-.254,0-.254-.028-.355-.369a1.818,1.818,0,0,0-.832-1.181,2.614,2.614,0,0,0-1.265-.211h-.964c-.506,0-.832-.026-1.012-.026h-.379v4.229h1.115a11.166,11.166,0,0,0,1.9-.109c.227-.075.355-.315.427-.864.054-.368.079-.392.129-.474.052-.053.075-.053.2-.053h.3c.2.026.254.1.254.342V169.6l.025.235c0,.343-.078.419-.381.419h-.2c-.254,0-.279-.05-.333-.524a2.377,2.377,0,0,0-.2-.842c-.1-.157-.254-.209-1.084-.209h-2.154v3.413l.026.473.026.285c0,.451.228.5,1.516.5a10.9,10.9,0,0,0,1.973-.158,1.922,1.922,0,0,0,1.47-1.233l.151-.315c.075-.184.15-.236.328-.236.379,0,.556.1.556.315,0,.053-.025.106-.025.159M123.8,189.127l-2.3-1.337-2.318,1.337-.6-.936,2.921-2.061,2.909,2.1Zm-16.239,2.479h1.477v3.607h3.882v-3.607H114.4v8.929h-1.478v-3.96h-3.882v3.96h-1.477Zm9.881,4.439a5.628,5.628,0,0,1,.315-1.936,4.33,4.33,0,0,1,.876-1.469,3.818,3.818,0,0,1,1.329-.934,4.228,4.228,0,0,1,1.678-.328,4.3,4.3,0,0,1,1.695.328,3.857,3.857,0,0,1,1.34.934,4.253,4.253,0,0,1,.881,1.469,5.6,5.6,0,0,1,.316,1.936,5.52,5.52,0,0,1-.316,1.911,4.466,4.466,0,0,1-.881,1.488,3.969,3.969,0,0,1-1.34.971,4.111,4.111,0,0,1-1.695.347,4.026,4.026,0,0,1-1.678-.347,3.9,3.9,0,0,1-1.329-.971,4.54,4.54,0,0,1-.876-1.488,5.568,5.568,0,0,1-.315-1.911m1.518,0a4.21,4.21,0,0,0,.194,1.318,3.148,3.148,0,0,0,.554,1.04,2.568,2.568,0,0,0,.853.688,2.4,2.4,0,0,0,1.092.246,2.45,2.45,0,0,0,1.954-.934,3.169,3.169,0,0,0,.555-1.04,4.269,4.269,0,0,0,.193-1.318,4.122,4.122,0,0,0-.193-1.286,3.236,3.236,0,0,0-.549-1.034,2.572,2.572,0,0,0-.853-.693,2.419,2.419,0,0,0-1.107-.252,2.39,2.39,0,0,0-1.1.252,2.6,2.6,0,0,0-.848.693,3.264,3.264,0,0,0-.548,1.034,4.064,4.064,0,0,0-.194,1.286m11.975-3.052h-2.4v-1.387h6.2v1.387h-2.4v7.542h-1.4Zm7.842-1.387h5.2v1.387h-3.8v2.271h3.6V196.6h-3.6v2.522h4v1.412h-5.4Zm9.915,0h1.4v7.517h3.333v1.412h-4.73Zm22.323,8.462a5.621,5.621,0,0,1-1.312.511,6.669,6.669,0,0,1-1.646.183,4.25,4.25,0,0,1-1.739-.347,3.944,3.944,0,0,1-1.352-.971,4.5,4.5,0,0,1-.881-1.488,5.544,5.544,0,0,1-.315-1.911,5.441,5.441,0,0,1,.327-1.936,4.377,4.377,0,0,1,.9-1.469,3.935,3.935,0,0,1,1.347-.934,4.271,4.271,0,0,1,1.684-.328,4.646,4.646,0,0,1,1.723.31A3.437,3.437,0,0,1,171,192.5l-.963,1.185a2.4,2.4,0,0,0-.838-.643,2.6,2.6,0,0,0-1.168-.265,2.48,2.48,0,0,0-1.982.945,3.286,3.286,0,0,0-.549,1.034,4.126,4.126,0,0,0-.193,1.286,4.264,4.264,0,0,0,.193,1.318,3.169,3.169,0,0,0,.555,1.04,2.5,2.5,0,0,0,.875.688,2.674,2.674,0,0,0,1.168.246,3.6,3.6,0,0,0,1.562-.315v-2.27h-1.649v-1.312h3v4.63Zm6.247-8.462h1.207l3.379,8.929h-1.6l-.731-2.043h-3.4l-.709,2.043h-1.562Zm1.772,5.524-1.207-3.632-1.231,3.632Zm6.713-5.524h1.4v7.517h3.333v1.412h-4.729Zm8.785,0h5.2v1.387h-3.8v2.271h3.6V196.6h-3.6v2.522h4v1.412h-5.4Zm9.881,0h2.724a4.362,4.362,0,0,1,1.076.132,2.576,2.576,0,0,1,.924.436,2.163,2.163,0,0,1,.648.794,2.674,2.674,0,0,1,.244,1.2,2.491,2.491,0,0,1-.481,1.583,2.364,2.364,0,0,1-1.313.826l2.094,3.96h-1.684l-1.816-3.783h-1.02v3.783h-1.4v-8.929Zm2.536,3.846a3.668,3.668,0,0,0,.6-.05,1.572,1.572,0,0,0,.537-.189,1.111,1.111,0,0,0,.394-.4,1.265,1.265,0,0,0,.155-.662,1.069,1.069,0,0,0-.51-.971,1.392,1.392,0,0,0-.5-.189,3.175,3.175,0,0,0-.549-.05h-1.263v2.509h1.141Zm7.556-3.846h1.4v8.929h-1.4Zm6.248,0h5.2v1.387h-3.8v2.271h3.6V196.6h-3.6v2.522h4v1.412h-5.4Z" transform="translate(423 164)" fill="#fff"></path></g></svg> 