<?xml version="1.0" encoding="UTF-8"?> <svg xmlns="http://www.w3.org/2000/svg" width="129" height="69" viewBox="0 0 129 69" fill="none"><path d="M50.181 46.4572C50.3607 47.799 50.7798 48.9321 51.4385 49.8565C52.0972 50.7809 52.9955 51.2281 54.0733 51.2281C55.5405 51.2281 56.7081 50.5125 57.5465 49.111L57.9657 49.3794C56.7381 51.586 55.1512 52.7787 52.726 52.7787C51.0493 52.7787 49.702 52.2121 48.654 51.0492C47.636 49.8863 47.0971 48.455 47.0971 46.7255C47.0971 44.6979 47.636 43.1175 48.684 42.0739C49.7319 40.9706 51.0493 40.4338 52.6362 40.4338C54.1332 40.4338 55.4207 40.9706 56.4686 42.0142C57.5465 43.0877 58.0555 44.5488 58.0555 46.4572H50.181ZM50.6601 42.1633C50.2708 42.9982 50.0912 43.9822 50.0912 45.175C50.0912 45.5328 50.0912 45.8012 50.1211 45.9503H54.6722C54.6422 42.7895 53.5643 40.8811 52.2469 40.8811C51.5882 40.9109 51.0493 41.3284 50.6601 42.1633Z" fill="white"></path><path d="M71.3792 52.5402C69.433 52.5402 67.7264 52.5999 66.1695 52.7788C66.3491 51.914 66.409 50.9598 66.409 49.8566C65.6305 51.8842 64.4329 52.7788 62.4867 52.7788C60.5406 52.7788 59.1932 52.0631 59.1932 50.3635C59.1932 49.4391 59.6723 48.6936 60.331 48.1569C60.6603 47.8587 61.1693 47.5903 61.828 47.2922C62.5167 46.994 63.1754 46.7256 63.7742 46.5169L66.409 45.6521V44.9663C66.409 42.223 65.8701 40.8812 64.8221 40.8812C64.1335 40.8812 63.385 41.2986 62.6364 42.1336C61.8879 42.9685 61.2292 44.0419 60.6903 45.2943L60.2412 45.175C60.4208 44.4594 60.5406 43.8332 60.5406 43.2368C60.5406 42.5808 60.3609 41.9546 60.0615 41.2986C60.2412 41.2688 60.9598 41.1197 62.2173 40.8215C63.4449 40.5234 64.373 40.3743 64.9419 40.3743C68.1456 40.3743 69.7325 41.8354 69.7325 44.7576V50.602C69.7325 51.6457 70.1516 52.0333 71.4092 52.0333V52.5402H71.3792ZM65.5707 50.602C66.1395 49.6478 66.439 48.4253 66.439 46.9045V46.1591C63.6844 47.1133 62.6065 48.3358 62.6065 50.3038C62.6065 51.4369 62.9359 52.0035 63.6245 52.0035C64.3431 52.0035 64.9718 51.5264 65.5707 50.602Z" fill="white"></path><path d="M80.601 44.2506C80.601 42.1932 80.0022 41.1197 79.1339 41.1197C78.4752 41.1197 77.8165 41.6564 77.2177 42.7597C76.6189 43.863 76.3194 45.2347 76.3194 46.9045V50.6914C76.3194 51.6158 76.7386 52.0333 77.9961 52.0333V52.5104H71.3492V52.0333C72.5768 52.0333 73.0259 51.6158 73.0259 50.6914V43.1772C73.0259 42.1633 72.6367 41.8353 71.3792 41.8353V41.3582C73.0559 41.3582 74.7625 41.0601 76.4691 40.4041C76.3793 40.8215 76.3194 41.9546 76.3194 43.7735C76.9781 41.5372 78.2357 40.4041 80.0621 40.4041C81.11 40.4041 82.0082 40.7917 82.7268 41.567C83.4753 42.3423 83.8646 43.3263 83.8646 44.5786V50.6914C83.8646 51.6158 84.2837 52.0333 85.5413 52.0333V52.5104H78.8944V52.0333C80.1219 52.0333 80.5711 51.6158 80.5711 50.6914V44.2506H80.601Z" fill="white"></path><path d="M86.9485 50.125C87.5473 49.5286 88.5354 49.5286 89.1342 50.125C89.733 50.7214 89.733 51.7054 89.1342 52.3018C88.5354 52.8981 87.5473 52.8981 86.9485 52.3018C86.3497 51.7352 86.3497 50.7214 86.9485 50.125Z" fill="white"></path><path d="M38.5939 34.9175C39.9712 34.9175 40.6299 35.4244 40.6299 36.6768V49.0813C40.6299 53.7032 39.2526 56.0588 36.6777 56.0588V56.5359C36.9771 56.5658 37.2765 56.5956 37.5759 56.5956C39.4023 56.5956 40.9592 56.1185 42.4563 54.6276C43.9533 53.1068 44.1629 51.1388 44.1629 48.6937V36.6768C44.1629 35.4244 44.8216 34.9175 46.169 34.9175V34.4404H38.564V34.9175H38.5939Z" fill="white"></path><path d="M27.9649 17.593L23.5037 28.2978C23.2042 28.9837 23.0246 29.6993 22.9348 30.4746C22.306 30.5939 21.7671 30.892 21.288 31.3691L15.1501 15.953V27.3436C15.1501 29.0433 15.8088 29.9975 17.6352 29.9975V30.4746H12.7249V29.9975C13.9824 29.9975 14.6411 29.1029 14.6411 27.3735V14.5515C14.6411 13.2991 14.1022 12.8519 12.7249 12.8519V12.3748H17.5155L23.4138 27.1349L29.5218 12.3748H33.3842V12.8519C32.0368 12.8519 31.4679 13.2693 31.4679 14.5515V28.2978C31.4679 29.5502 32.0069 29.9975 33.3842 29.9975V30.4746H26.0486V29.9975C27.396 29.9975 27.9649 29.58 27.9649 28.2978V17.593Z" fill="white"></path><path d="M40.5999 30.6832C38.8334 30.6832 37.3364 30.1167 36.0788 28.9836C34.8513 27.8505 34.2524 26.3297 34.2524 24.5108C34.2524 22.6919 34.8812 21.1711 36.0788 20.038C37.3064 18.9049 38.8334 18.3384 40.5999 18.3384C42.3664 18.3384 43.8635 18.9049 45.0911 20.038C46.3186 21.1711 46.9474 22.6919 46.9474 24.5108C46.9474 26.3297 46.3186 27.8505 45.0911 28.9836C43.8635 30.1167 42.3664 30.6832 40.5999 30.6832ZM42.9653 28.4468C43.3844 27.3734 43.5341 26.2701 43.5341 24.9581C43.5341 23.7355 43.3545 22.4832 42.9353 21.1413C42.5161 19.7995 41.6179 18.8453 40.4502 18.8453C38.2645 18.8453 37.6657 21.7079 37.6657 24.0933C37.6657 25.3159 37.8454 26.5385 38.2346 27.9101C38.6538 29.2519 39.552 30.1763 40.7197 30.1763C41.7976 30.1763 42.576 29.4905 42.9653 28.4468Z" fill="white"></path><path d="M56.8878 22.185C56.8878 20.1275 56.289 19.054 55.4207 19.054C54.762 19.054 54.1033 19.5908 53.5045 20.694C52.9056 21.7973 52.6062 23.169 52.6062 24.8388V28.6258C52.6062 29.5501 53.0254 29.9676 54.2829 29.9676V30.4447H47.636V29.9676C48.8636 29.9676 49.3127 29.5501 49.3127 28.6258V21.1115C49.3127 20.0977 48.9235 19.7697 47.666 19.7697V19.2926C49.3427 19.2926 51.0493 18.9944 52.7559 18.3384C52.6661 18.7558 52.6062 19.8889 52.6062 21.7079C53.2649 19.4715 54.5225 18.3384 56.3489 18.3384C57.3968 18.3384 58.295 18.726 59.0136 19.5013C59.7621 20.2766 60.1514 21.2606 60.1514 22.513V28.6258C60.1514 29.5501 60.5705 29.9676 61.828 29.9676V30.4447H55.1812V29.9676C56.4087 29.9676 56.8579 29.5501 56.8579 28.6258V22.185H56.8878Z" fill="white"></path><path d="M66.8581 25.7334C65.1515 24.5704 62.9358 23.3181 62.9358 21.1413C62.9358 20.1573 63.3251 19.4715 64.1035 19.0242C64.882 18.5769 65.8401 18.3384 66.9779 18.3384C67.5767 18.3384 68.1156 18.398 68.6845 18.4875C69.8223 18.6664 71.1097 19.0838 71.5588 19.1733C71.3792 19.71 71.2594 20.1871 71.2594 20.6642C71.2594 21.201 71.3492 21.7675 71.5588 22.3639L71.1397 22.513C70.5408 21.4395 69.8522 20.5748 69.0737 19.8591C68.2953 19.1435 67.6066 18.7857 67.0078 18.7857C66.3491 18.7857 65.9 19.2926 65.9 20.0679C65.9 21.0817 66.8581 21.9762 68.0258 22.7217C69.7324 23.7952 71.9481 25.0774 71.9481 27.4927C71.9481 28.6258 71.5289 29.4309 70.7205 29.908C69.9121 30.4149 68.8941 30.6832 67.6965 30.6832C66.7683 30.6832 65.7203 30.5043 65.0616 30.3552L63.8341 30.0272L62.6664 29.729C62.7861 29.2818 62.846 28.745 62.846 28.2083C62.846 27.6119 62.7263 26.8963 62.4568 26.0614L62.9059 25.8825C63.5047 27.0454 64.2532 28.0592 65.1215 28.9239C66.0198 29.7887 66.8282 30.2061 67.5767 30.2061C68.3551 30.2061 68.954 29.6396 68.954 28.6556C68.9839 27.5225 68.0258 26.5086 66.8581 25.7334Z" fill="white"></path><path d="M74.3433 21.1115C74.3433 20.1275 73.9541 19.7697 72.6966 19.7697V19.2926C74.523 19.2926 76.2595 18.9944 77.8165 18.3384C77.6967 19.054 77.6368 19.8591 77.6368 20.7537V28.6258C77.6368 29.5501 78.056 29.9676 79.3135 29.9676V30.4447H72.6666V29.9676C73.8942 29.9676 74.3433 29.5501 74.3433 28.6258V21.1115Z" fill="white"></path><path d="M83.1461 24.3617C83.3257 25.7035 83.7449 26.8366 84.4036 27.761C85.0623 28.6854 85.9605 29.1327 87.0384 29.1327C88.5055 29.1327 89.6732 28.417 90.5115 27.0156L90.9307 27.2839C89.7031 29.4905 88.1163 30.6832 85.691 30.6832C84.0143 30.6832 82.667 30.1167 81.6191 28.9538C80.6011 27.7908 80.0621 26.3596 80.0621 24.6301C80.0621 22.6024 80.6011 21.022 81.649 19.9784C82.6969 18.8751 84.0143 18.3384 85.6012 18.3384C87.0983 18.3384 88.3857 18.8751 89.4337 19.9188C90.5115 20.9922 91.0205 22.4533 91.0205 24.3617H83.1461ZM83.655 20.0977C83.2658 20.9326 83.0862 21.9166 83.0862 23.1093C83.0862 23.4672 83.0862 23.7355 83.1161 23.8846H87.6671C87.6372 20.7239 86.5593 18.8155 85.2419 18.8155C84.5533 18.8155 84.0443 19.2628 83.655 20.0977Z" fill="white"></path><path d="M97.1883 30.6833C96.1703 30.6833 95.2422 30.3553 94.5236 29.6694C93.805 28.9836 93.3858 27.9996 93.3858 26.777V21.1115C93.3858 20.1275 92.9966 19.7697 91.7391 19.7697V19.2926C93.5655 19.2926 95.302 18.9944 96.859 18.3384C96.7392 19.0541 96.6793 19.8592 96.6793 20.7537V27.2243C96.6793 29.0433 97.2183 29.9974 98.1464 29.9974C98.8351 29.9974 99.4638 29.4607 100.033 28.3574C100.632 27.2541 100.931 25.8825 100.931 24.2127V21.1712C100.931 20.1872 100.422 19.7399 99.1644 19.7399V19.2628C101.111 19.2628 102.847 18.9646 104.404 18.3086C104.284 19.0242 104.224 19.8293 104.224 20.7239V28.5363C104.224 29.58 104.644 29.9676 105.901 29.9676V30.4447C103.955 30.4447 102.248 30.5044 100.691 30.6833C100.871 29.8185 100.931 28.7451 100.931 27.4629C100.242 29.6396 98.9848 30.6833 97.1883 30.6833Z" fill="white"></path><path d="M105.901 30.4447V29.9676C107.129 29.9676 107.578 29.5501 107.578 28.6258V21.1115C107.578 20.0977 107.189 19.7697 105.931 19.7697V19.2926C107.638 19.2926 109.314 18.9944 111.051 18.3384C110.931 18.8453 110.871 19.8591 110.871 21.4097C111.53 19.2329 113.147 18.3384 115.812 18.3384C115.542 18.9049 115.392 19.5311 115.392 20.1871C115.392 21.201 115.572 22.0955 115.931 22.9006L115.542 23.1392C114.434 21.0817 113.476 20.0679 112.608 20.0679C111.53 20.0679 110.871 21.857 110.871 25.1072V28.3276C110.871 29.4607 111.41 29.9676 113.207 29.9676V30.4447H105.901Z" fill="white"></path><path d="M74.7027 15.1179C75.3015 14.5216 76.2895 14.5216 76.8883 15.1179C77.4872 15.7143 77.4872 16.6983 76.8883 17.2947C76.2895 17.8911 75.3015 17.8911 74.7027 17.2947C74.1038 16.6983 74.1038 15.7143 74.7027 15.1179Z" fill="white"></path></svg> 